<svg width="16" height="16" viewBox="0 0 16 16" fill="none" xmlns="http://www.w3.org/2000/svg">
<path fill-rule="evenodd" clip-rule="evenodd" d="M4.53339 15.5447C3.85953 15.8416 3.07255 15.5361 2.7756 14.8622C2.68261 14.6512 2.64594 14.4197 2.66917 14.1902L3.0508 10.4211L0.526591 7.59606C0.0359476 7.04694 0.083346 6.20406 0.632458 5.71341C0.804415 5.55977 1.01328 5.45334 1.23866 5.40454L4.94128 4.60275L6.848 1.32911C7.21862 0.692797 8.0349 0.477408 8.67122 0.848028C8.87048 0.964089 9.03624 1.12985 9.1523 1.32911L11.059 4.60275L14.7616 5.40454C15.4813 5.56039 15.9384 6.27016 15.7826 6.98986C15.7338 7.21523 15.6274 7.4241 15.4737 7.59606L12.9495 10.4211L13.3311 14.1902C13.4053 14.9229 12.8715 15.5769 12.1389 15.6511C11.9095 15.6743 11.6779 15.6377 11.4669 15.5447L8.00015 14.017L4.53339 15.5447Z" fill="#696470"/>
</svg>
