<svg width="928" height="1051" viewBox="0 0 928 1051" fill="none" xmlns="http://www.w3.org/2000/svg">
<path fill-rule="evenodd" clip-rule="evenodd" d="M469.207 951.218L513.245 1035.48C473.386 1056.36 425.684 1055.65 386.461 1033.59L68.7998 854.925C26.8918 831.354 0.950806 786.975 0.950806 738.849V320.851C0.950806 273.568 25.9988 229.833 66.7572 205.948L384.439 19.7877C424.684 -3.79519 474.324 -4.55033 515.266 17.7977L857.725 204.732L812.259 288.229L469.798 101.293C458.101 94.9079 443.917 95.1236 432.419 101.862L114.737 288.021C103.092 294.846 95.9352 307.342 95.9352 320.851V738.849C95.9352 752.6 103.347 765.28 115.321 772.014L432.982 950.68C444.189 956.982 457.818 957.185 469.207 951.218ZM469.207 951.218L513.245 1035.48L855.726 856.046C899.57 833.076 927.049 787.629 927.049 738.083V321.627C927.049 272.897 900.459 228.057 857.725 204.732L812.259 288.229C824.467 294.894 832.064 307.704 832.064 321.627V738.083C832.064 752.24 824.214 765.225 811.686 771.788L469.207 951.218Z" fill="url(#paint0_linear_199_2)"/>
<defs>
<linearGradient id="paint0_linear_199_2" x1="-157.499" y1="271.114" x2="517.262" y2="-340.488" gradientUnits="userSpaceOnUse">
<stop stop-color="#0085FF"/>
<stop offset="1" stop-color="#C0E2F5"/>
</linearGradient>
</defs>
</svg>
