<svg id="meteor-icon-kit__regular-file-text" viewBox="0 0 18 24" fill="currentColor" xmlns="http://www.w3.org/2000/svg"><path fill-rule="evenodd" clip-rule="evenodd" d="M2 7V21C2 21.5523 2.44772 22 3 22H15C15.5523 22 16 21.5523 16 21V3C16 2.44772 15.5523 2 15 2H7V6C7 6.55228 6.55228 7 6 7H2zM2.12602 5H5V2.12602C3.59439 2.4878 2.4878 3.59439 2.12602 5zM15 0C16.6569 0 18 1.34315 18 3V21C18 22.6569 16.6569 24 15 24H3C1.34315 24 0 22.6569 0 21V6C0 2.68629 2.68629 0 6 0H15zM5 11C4.44772 11 4 10.5523 4 10C4 9.44771 4.44772 9 5 9H13C13.5523 9 14 9.44771 14 10C14 10.5523 13.5523 11 13 11H5zM5 15C4.44772 15 4 14.5523 4 14C4 13.4477 4.44772 13 5 13H13C13.5523 13 14 13.4477 14 14C14 14.5523 13.5523 15 13 15H5zM5 19C4.44772 19 4 18.5523 4 18C4 17.4477 4.44772 17 5 17H13C13.5523 17 14 17.4477 14 18C14 18.5523 13.5523 19 13 19H5z" fill="currentColor"/></svg>