<svg id="meteor-icon-kit__regular-key" viewBox="0 0 24 14" fill="currentColor" xmlns="http://www.w3.org/2000/svg"><path fill-rule="evenodd" clip-rule="evenodd" d="M18 9V8C18 7.4477 18.4477 7 19 7C19.5523 7 20 7.4477 20 8V9H21C21.5523 9 22 8.5523 22 8V6C22 5.4477 21.5523 5 21 5H11.584C10.8124 3.2341 9.05032 2 7 2C4.23858 2 2 4.23858 2 7C2 9.7614 4.23858 12 7 12C9.05032 12 10.8124 10.7659 11.584 9H14V8C14 7.4477 14.4477 7 15 7C15.5523 7 16 7.4477 16 8V9H18zM21 3C22.6569 3 24 4.34315 24 6V8C24 9.6569 22.6569 11 21 11H12.7457C11.4611 12.8444 9.33628 14 7 14C3.13401 14 0 10.866 0 7C0 3.13401 3.13401 0 7 0C9.33628 0 11.4611 1.15555 12.7457 3H21zM5 8C4.44772 8 4 7.5523 4 7C4 6.4477 4.44772 6 5 6C5.55228 6 6 6.4477 6 7C6 7.5523 5.55228 8 5 8z" fill="currentColor"/></svg>