<svg id="meteor-icon-kit__regular-pencil-s" viewBox="0 0 16 16" fill="currentColor" xmlns="http://www.w3.org/2000/svg"><path fill-rule="evenodd" clip-rule="evenodd" d="M8.5 4.91421L2 11.4142V14H4.58579L11.0858 7.5L8.5 4.91421zM9.9142 3.5L12.5 6.0858L13.5858 5L11 2.41421L9.9142 3.5zM1 16C0.44772 16 0 15.5523 0 15V11C0 10.7348 0.10536 10.4804 0.29289 10.2929L10.2929 0.29289C10.6834 -0.09763 11.3166 -0.09763 11.7071 0.29289L15.7071 4.29289C16.0976 4.68342 16.0976 5.31658 15.7071 5.70711L5.70711 15.7071C5.51957 15.8946 5.26522 16 5 16H1z" fill="currentColor"/></svg>