<svg width="44" height="24" viewBox="0 0 44 24" fill="none" xmlns="http://www.w3.org/2000/svg">
<g clip-path="url(#clip0_15747_20773)">
<path d="M39.0518 0H4.14816C1.85719 0 0 1.85719 0 4.14816V19.8518C0 22.1428 1.85719 24 4.14816 24H39.0518C41.3428 24 43.2 22.1428 43.2 19.8518V4.14816C43.2 1.85719 41.3428 0 39.0518 0Z" fill="#FFB3C7"/>
<path d="M39.1618 14.0604C38.5966 14.0604 38.1384 14.5227 38.1384 15.093C38.1384 15.6633 38.5966 16.1257 39.1618 16.1257C39.727 16.1257 40.1852 15.6633 40.1852 15.093C40.1852 14.5227 39.727 14.0604 39.1618 14.0604ZM35.7948 13.262C35.7948 12.4811 35.1334 11.8483 34.3174 11.8483C33.5015 11.8483 32.84 12.4812 32.84 13.262C32.84 14.0428 33.5014 14.6759 34.3174 14.6759C35.1334 14.6759 35.7948 14.0428 35.7948 13.262ZM35.8003 10.5143H37.4307V16.0095H35.8003V15.6583C35.3396 15.9753 34.7836 16.1616 34.1839 16.1616C32.5969 16.1616 31.3103 14.8634 31.3103 13.262C31.3103 11.6605 32.5969 10.3624 34.1839 10.3624C34.7836 10.3624 35.3397 10.5487 35.8003 10.8658V10.5143ZM22.7519 11.2301V10.5143H21.0826V16.0095H22.7557V13.4439C22.7557 12.5783 23.6854 12.113 24.3306 12.113C24.3372 12.113 24.3433 12.1137 24.3499 12.1138V10.5148C23.6878 10.5148 23.0788 10.8008 22.7519 11.2301ZM18.5936 13.262C18.5936 12.4812 17.9321 11.8483 17.1162 11.8483C16.3003 11.8483 15.6387 12.4812 15.6387 13.262C15.6387 14.0429 16.3002 14.6759 17.1162 14.6759C17.9321 14.6759 18.5936 14.0429 18.5936 13.262ZM18.599 10.5143H20.2296V16.0095H18.599V15.6583C18.1384 15.9753 17.5824 16.1616 16.9827 16.1616C15.3957 16.1616 14.1091 14.8634 14.1091 13.262C14.1091 11.6605 15.3957 10.3624 16.9827 10.3624C17.5824 10.3624 18.1384 10.5487 18.599 10.8658V10.5143ZM28.4131 10.3665C27.7618 10.3665 27.1453 10.5705 26.7332 11.1335V10.5146H25.1097V16.0096H26.7531V13.1218C26.7531 12.2861 27.3085 11.8769 27.9771 11.8769C28.6937 11.8769 29.1057 12.3089 29.1057 13.1105V16.0096H30.7343V12.5151C30.7343 11.2362 29.7266 10.3665 28.4131 10.3665ZM11.734 16.0096H13.4406V8.06546H11.734V16.0096ZM4.2373 16.0117H6.04441V8.06398H4.2373V16.0117ZM10.5579 8.06398C10.5579 9.78459 9.89344 11.3852 8.70937 12.5749L11.2073 16.012H8.97529L6.2606 12.2767L6.96122 11.7472C8.12311 10.8689 8.78954 9.52652 8.78954 8.06396L10.5579 8.06398Z" fill="#0A0B09"/>
</g>
<defs>
<clipPath id="clip0_15747_20773">
<rect width="43.2" height="24" fill="white"/>
</clipPath>
</defs>
</svg>
