<svg width="32" height="24" viewBox="0 0 32 24" fill="none" xmlns="http://www.w3.org/2000/svg">
<rect x="0.0571289" width="31.7143" height="24" rx="4" fill="white"/>
<g clip-path="url(#clip0_15747_20785)">
<path d="M9.66732 19.6286V18.6068C9.68435 18.2663 9.44593 17.9768 9.10535 17.9597C9.07129 17.9597 9.05426 17.9597 9.0202 17.9597C8.79882 17.9427 8.57744 18.0619 8.4412 18.2492C8.322 18.0619 8.11765 17.9427 7.89627 17.9597C7.70894 17.9427 7.52162 18.0449 7.41944 18.1981V17.9938H7.07886V19.6286H7.43647V18.7261C7.41944 18.5217 7.55568 18.3344 7.76003 18.3003C7.77706 18.3003 7.81112 18.3003 7.82815 18.3003C8.06656 18.3003 8.18576 18.4536 8.18576 18.7261V19.6286H8.54338V18.7261C8.50932 18.5217 8.66259 18.3174 8.86694 18.3003C8.88397 18.3003 8.91803 18.3003 8.93505 18.3003C9.17347 18.3003 9.29267 18.4536 9.29267 18.7261V19.6286H9.66732ZM14.9634 17.9938H14.3844V17.4999H14.0268V17.9938H13.7033V18.3174H14.0268V19.0666C14.0268 19.4413 14.1801 19.6627 14.5888 19.6627C14.7421 19.6627 14.8953 19.6116 15.0316 19.5435L14.9294 19.2369C14.8272 19.288 14.725 19.3221 14.6229 19.3221C14.4526 19.3221 14.3844 19.2199 14.3844 19.0496V18.3174H14.9634V17.9938ZM17.9776 17.9597C17.8073 17.9597 17.637 18.0449 17.5519 18.1981V17.9938H17.1943V19.6286H17.5519V18.709C17.5519 18.4366 17.6711 18.2833 17.8925 18.2833C17.9606 18.2833 18.0457 18.3003 18.1139 18.3174L18.216 17.9768C18.1479 17.9768 18.0628 17.9597 17.9776 17.9597ZM13.4138 18.13C13.2094 18.0108 12.988 17.9597 12.7496 17.9597C12.3409 17.9597 12.0685 18.1641 12.0685 18.4876C12.0685 18.7601 12.2728 18.9134 12.6304 18.9645L12.8007 18.9815C12.988 19.0156 13.0902 19.0666 13.0902 19.1518C13.0902 19.271 12.954 19.3561 12.7156 19.3561C12.5282 19.3561 12.3239 19.3051 12.1706 19.1858L12.0003 19.4583C12.2047 19.5946 12.4601 19.6797 12.6985 19.6627C13.1754 19.6627 13.4478 19.4413 13.4478 19.1348C13.4478 18.8453 13.2264 18.692 12.8859 18.6409L12.7156 18.6239C12.5623 18.6068 12.4431 18.5728 12.4431 18.4706C12.4431 18.3514 12.5623 18.2833 12.7496 18.2833C12.9199 18.2833 13.1072 18.3344 13.2605 18.4195L13.4138 18.13ZM22.8991 17.9597C22.7288 17.9597 22.5585 18.0449 22.4734 18.1981V17.9938H22.1158V19.6286H22.4734V18.709C22.4734 18.4366 22.5926 18.2833 22.814 18.2833C22.8821 18.2833 22.9672 18.3003 23.0353 18.3174L23.1375 17.9768C23.0694 17.9768 22.9843 17.9597 22.8991 17.9597ZM18.3352 18.8112C18.3182 19.271 18.6758 19.6456 19.1186 19.6627C19.1527 19.6627 19.1697 19.6627 19.2037 19.6627C19.4081 19.6797 19.6295 19.6116 19.7827 19.4753L19.6124 19.1858C19.4932 19.271 19.34 19.3221 19.1867 19.3391C18.8972 19.3221 18.6758 19.0666 18.6929 18.7942C18.7099 18.5387 18.9142 18.3174 19.1867 18.3003C19.34 18.3003 19.4932 18.3514 19.6124 18.4536L19.7827 18.1641C19.6124 18.0279 19.4081 17.9597 19.2037 17.9768C18.7439 17.9427 18.3693 18.3003 18.3352 18.7431C18.3352 18.7601 18.3352 18.7942 18.3352 18.8112ZM21.656 18.8112V17.9938H21.2983V18.1981C21.1791 18.0449 20.9918 17.9597 20.7875 17.9597C20.3106 17.9768 19.953 18.3855 19.9701 18.8623C19.9871 19.3051 20.3447 19.6456 20.7875 19.6797C20.9918 19.6967 21.1791 19.5946 21.2983 19.4413V19.6456H21.656V18.8112ZM20.3277 18.8112C20.3447 18.5387 20.5831 18.3344 20.8556 18.3514C21.1281 18.3684 21.3324 18.6068 21.3154 18.8793C21.2983 19.1348 21.094 19.3391 20.8215 19.3391C20.5491 19.3391 20.3277 19.1348 20.3277 18.8623C20.3277 18.8453 20.3277 18.8282 20.3277 18.8112ZM16.0533 17.9597C15.5765 17.9768 15.2189 18.3855 15.2359 18.8623C15.2529 19.3051 15.6276 19.6627 16.0703 19.6797C16.3088 19.6967 16.5472 19.6116 16.7345 19.4583L16.5642 19.2029C16.428 19.3051 16.2577 19.3732 16.0874 19.3732C15.849 19.3902 15.6276 19.2199 15.5935 18.9815H16.8026C16.8026 18.9304 16.8026 18.8963 16.8026 18.8453C16.8367 18.3003 16.5131 17.9597 16.0533 17.9597ZM16.0533 18.2833C16.2747 18.2833 16.462 18.4536 16.462 18.675H15.6106C15.6276 18.4366 15.8319 18.2663 16.0533 18.2833ZM24.9426 18.8112V17.3467H24.585V18.1981C24.4658 18.0449 24.2785 17.9597 24.0741 17.9597C23.5973 17.9768 23.2397 18.3855 23.2567 18.8623C23.2738 19.3051 23.6314 19.6456 24.0741 19.6797C24.2785 19.6967 24.4658 19.5946 24.585 19.4413V19.6456H24.9426V18.8112ZM25.5216 19.3902C25.5387 19.3902 25.5727 19.3902 25.5897 19.4072C25.6068 19.4072 25.6238 19.4243 25.6408 19.4413C25.6579 19.4583 25.6749 19.4753 25.6749 19.4924C25.6919 19.5264 25.6919 19.5775 25.6749 19.6116C25.6749 19.6286 25.6579 19.6456 25.6408 19.6627C25.6238 19.6797 25.6068 19.6967 25.5897 19.6967C25.5727 19.7138 25.5557 19.7138 25.5216 19.7138C25.4535 19.7138 25.4024 19.6797 25.3684 19.6116C25.3513 19.5775 25.3513 19.5264 25.3684 19.4924C25.3684 19.4753 25.3854 19.4583 25.4024 19.4413C25.4194 19.4243 25.4365 19.4072 25.4535 19.4072C25.4876 19.3902 25.5046 19.3902 25.5216 19.3902ZM25.5216 19.6797C25.5387 19.6797 25.5557 19.6797 25.5727 19.6627C25.5897 19.6627 25.6068 19.6456 25.6068 19.6286C25.6579 19.5775 25.6579 19.4924 25.6068 19.4583C25.5897 19.4413 25.5897 19.4413 25.5727 19.4243C25.5557 19.4243 25.5387 19.4072 25.5216 19.4072C25.5046 19.4072 25.4876 19.4072 25.4705 19.4243C25.4535 19.4243 25.4365 19.4413 25.4365 19.4583C25.3854 19.5094 25.3854 19.5946 25.4365 19.6286C25.4535 19.6456 25.4535 19.6456 25.4705 19.6627C25.4876 19.6797 25.5046 19.6797 25.5216 19.6797ZM25.5387 19.4753C25.5557 19.4753 25.5727 19.4753 25.5897 19.4924C25.6068 19.5094 25.6068 19.5094 25.6068 19.5264C25.6068 19.5435 25.6068 19.5435 25.5897 19.5605C25.5727 19.5775 25.5727 19.5775 25.5557 19.5775L25.6068 19.6286H25.5727L25.5216 19.5775H25.5046V19.6286H25.4705V19.4753H25.5387ZM25.5046 19.5094V19.5435H25.5387H25.5557V19.5264V19.5094H25.5387H25.5046ZM23.6143 18.8112C23.6314 18.5387 23.8698 18.3344 24.1422 18.3514C24.4147 18.3684 24.6191 18.6068 24.602 18.8793C24.585 19.1348 24.3807 19.3391 24.1082 19.3391C23.8357 19.3391 23.6143 19.1348 23.6143 18.8623C23.6143 18.8453 23.6143 18.8282 23.6143 18.8112ZM11.6597 18.8112V17.9938H11.3021V18.1981C11.1829 18.0449 10.9956 17.9597 10.7913 17.9597C10.3144 17.9768 9.95681 18.3855 9.97384 18.8623C9.99087 19.3051 10.3485 19.6456 10.7913 19.6797C10.9956 19.6967 11.1829 19.5946 11.3021 19.4413V19.6456H11.6597V18.8112ZM10.3485 18.8112C10.3655 18.5387 10.6039 18.3344 10.8764 18.3514C11.1489 18.3684 11.3532 18.6068 11.3362 18.8793C11.3192 19.1348 11.1148 19.3391 10.8423 19.3391C10.5699 19.3391 10.3485 19.1348 10.3485 18.8623C10.3485 18.8453 10.3485 18.8282 10.3485 18.8112Z" fill="#231F20"/>
<path d="M18.6588 5.59644H13.2946V15.235H18.6588V5.59644Z" fill="#FF5F00"/>
<path d="M13.6353 10.4159C13.6353 8.54269 14.5038 6.75461 15.9683 5.59661C13.3117 3.502 9.46307 3.9618 7.36846 6.6354C5.27385 9.29198 5.73365 13.1406 8.40725 15.2352C10.6381 16.9892 13.7545 16.9892 15.9853 15.2352C14.5038 14.0772 13.6353 12.2891 13.6353 10.4159Z" fill="#EB001B"/>
<path d="M25.8963 10.4157C25.8963 13.8045 23.1546 16.5462 19.7657 16.5462C18.3864 16.5462 17.0581 16.0864 15.9852 15.235C18.6418 13.1404 19.1016 9.29173 17.007 6.61813C16.7005 6.24348 16.3599 5.88587 15.9852 5.59637C18.6418 3.50176 22.5075 3.96155 24.585 6.63516C25.4365 7.708 25.8963 9.03629 25.8963 10.4157Z" fill="#F79E1B"/>
<path d="M25.3172 14.2133V14.0089H25.4024V13.9749H25.198V14.0089H25.2831V14.2133H25.3172ZM25.7089 14.2133V13.9749H25.6408L25.5726 14.1451L25.5045 13.9749H25.4364V14.2133H25.4875V14.0259L25.5556 14.1792H25.6067L25.6748 14.0259V14.2133H25.7089Z" fill="#F79E1B"/>
</g>
<defs>
<clipPath id="clip0_15747_20785">
<rect width="19.8392" height="15.4286" fill="white" transform="translate(6.05713 4.28516)"/>
</clipPath>
</defs>
</svg>
