<svg width="64" height="24" viewBox="0 0 64 24" fill="none" xmlns="http://www.w3.org/2000/svg">
<rect x="0.771484" width="62.5714" height="24" rx="4" fill="white"/>
<g clip-path="url(#clip0_15747_20797)">
<path d="M54.9195 8.60162C54.9161 8.42857 54.9476 8.2566 55.012 8.09597C55.0776 7.94524 55.1694 7.80742 55.2834 7.68898C55.3959 7.57362 55.53 7.48144 55.678 7.41765C55.8295 7.3508 55.9935 7.31716 56.159 7.31899C56.3253 7.31719 56.4902 7.34904 56.6439 7.41263C56.7975 7.47621 56.9368 7.57021 57.0532 7.68898C57.1691 7.80578 57.2613 7.94401 57.3245 8.09597C57.4538 8.41853 57.4538 8.77854 57.3245 9.10111C57.2613 9.25307 57.1691 9.39129 57.0532 9.5081C56.9368 9.62686 56.7975 9.72086 56.6439 9.78445C56.4902 9.84803 56.3253 9.87988 56.159 9.87808C55.9932 9.88304 55.8285 9.84926 55.678 9.77942C55.529 9.71743 55.3946 9.62502 55.2834 9.5081C55.1694 9.38965 55.0776 9.25183 55.012 9.10111C54.9482 8.94244 54.9168 8.77262 54.9195 8.60162ZM55.1724 8.60162C55.1724 8.74062 55.1975 8.87848 55.2464 9.00861C55.2946 9.13184 55.3657 9.24483 55.456 9.3416C55.5461 9.43767 55.655 9.5141 55.776 9.56609C55.8969 9.61809 56.0273 9.64453 56.159 9.64376C56.2964 9.64152 56.4322 9.61436 56.5598 9.56359C56.6767 9.50826 56.7831 9.43316 56.8743 9.3416C56.9665 9.24508 57.0397 9.13213 57.0902 9.00861C57.189 8.74416 57.189 8.45292 57.0902 8.18846C57.0397 8.06495 56.9665 7.952 56.8743 7.85547C56.7845 7.76376 56.6777 7.69045 56.5598 7.63965C56.4335 7.58397 56.2971 7.5546 56.159 7.55332C56.0248 7.55395 55.8923 7.58339 55.7705 7.63965C55.6518 7.68896 55.5447 7.76246 55.456 7.85547C55.3657 7.95224 55.2946 8.06523 55.2464 8.18846C55.1969 8.32057 55.1718 8.46056 55.1724 8.60162ZM55.7335 8.04664C55.7314 8.01998 55.7389 7.99346 55.7548 7.97193C55.7707 7.9504 55.7938 7.93533 55.8199 7.92947H56.2453C56.3564 7.92737 56.4642 7.96698 56.5475 8.04047C56.6091 8.1163 56.6427 8.21102 56.6427 8.30871C56.6427 8.4064 56.6091 8.50112 56.5475 8.57695L56.4735 8.65095C56.4459 8.66587 56.417 8.67826 56.3872 8.68795V8.72495L56.5722 9.08261C56.5797 9.09685 56.5837 9.11273 56.5837 9.12886C56.5837 9.14498 56.5797 9.16086 56.5722 9.1751C56.5646 9.18907 56.5526 9.20021 56.5382 9.20687C56.5238 9.21353 56.5076 9.21537 56.492 9.2121H56.4488C56.4208 9.21365 56.393 9.20686 56.3688 9.1926C56.3447 9.17833 56.3253 9.15722 56.3132 9.13194L56.1097 8.70028H55.8939V9.10111C55.8975 9.12638 55.8911 9.15207 55.8762 9.17277C55.8612 9.19347 55.8388 9.20757 55.8137 9.2121H55.752C55.739 9.21383 55.7259 9.21295 55.7132 9.20953C55.7006 9.20611 55.6888 9.20021 55.6784 9.19218C55.6681 9.18415 55.6595 9.17414 55.6531 9.16274C55.6466 9.15134 55.6425 9.13877 55.641 9.12577V8.02814L55.7335 8.04664ZM56.196 8.55845C56.2247 8.56043 56.2534 8.55591 56.2801 8.54523C56.3068 8.53456 56.3308 8.518 56.3502 8.49679C56.3708 8.47588 56.3864 8.45063 56.396 8.42289C56.4056 8.39516 56.4089 8.36563 56.4057 8.33646C56.4077 8.30737 56.4039 8.27817 56.3943 8.25061C56.3848 8.22306 56.3698 8.19772 56.3502 8.17613C56.3295 8.15701 56.3052 8.14223 56.2787 8.1327C56.2523 8.12316 56.2241 8.11906 56.196 8.12063H55.9802V8.56462L56.196 8.55845ZM45.972 9.38477C46.3152 9.37246 46.6579 9.4226 46.9833 9.53276C47.206 9.61799 47.4224 9.71897 47.6307 9.83492C47.6883 9.85939 47.7391 9.8974 47.7788 9.94571C47.8186 9.99402 47.846 10.0512 47.8589 10.1124C47.8805 10.2405 47.8611 10.3722 47.8034 10.4886L47.6862 10.6982C47.6619 10.7567 47.625 10.8092 47.5781 10.8518C47.5312 10.8944 47.4755 10.9262 47.4149 10.9449C47.2842 10.9659 47.1501 10.9443 47.0326 10.8832C46.9031 10.8216 46.7428 10.7599 46.5578 10.6921C46.347 10.6228 46.126 10.5894 45.9041 10.5934C45.6874 10.578 45.4715 10.632 45.2875 10.7476C45.2199 10.7969 45.1655 10.862 45.1289 10.9373C45.0924 11.0125 45.0748 11.0956 45.0778 11.1792C45.0772 11.2579 45.0968 11.3355 45.1345 11.4046C45.1723 11.4736 45.2271 11.5319 45.2936 11.5739C45.4642 11.6874 45.6487 11.7786 45.8425 11.8452L46.5516 12.0919C46.8019 12.1806 47.0418 12.2964 47.2669 12.4372C47.4846 12.5767 47.6713 12.7592 47.8157 12.9737C47.9658 13.2248 48.0407 13.5137 48.0316 13.8061C48.0341 14.0565 47.9799 14.3041 47.8731 14.5305C47.7663 14.7569 47.6097 14.9562 47.4149 15.1134C47.2035 15.286 46.9605 15.4158 46.6996 15.4958C46.3994 15.5948 46.0846 15.6428 45.7685 15.6376C45.3475 15.6505 44.9282 15.5792 44.5352 15.4279C44.2682 15.3212 44.0122 15.189 43.7705 15.0333C43.7133 15.0042 43.6636 14.9624 43.6251 14.9111C43.5866 14.8598 43.5604 14.8003 43.5485 14.7373C43.5431 14.6059 43.5799 14.4763 43.6534 14.3673L43.7952 14.1576C43.8247 14.1044 43.8653 14.0582 43.9143 14.022C43.9632 13.9859 44.0193 13.9606 44.0788 13.948C44.213 13.9362 44.3472 13.9687 44.4612 14.0405C44.603 14.1145 44.7818 14.2008 45.0038 14.2995C45.2535 14.4041 45.5225 14.4546 45.7931 14.4475C46.0116 14.4633 46.229 14.4046 46.4098 14.281C46.481 14.2315 46.5386 14.1649 46.5774 14.0873C46.6162 14.0097 46.6349 13.9236 46.6318 13.837C46.6319 13.7592 46.6121 13.6827 46.5743 13.6147C46.5366 13.5467 46.482 13.4895 46.4159 13.4485C46.244 13.3373 46.0599 13.2463 45.8671 13.1772L45.1765 12.9182C44.9261 12.8271 44.6863 12.7093 44.4612 12.5667C44.2427 12.4282 44.0558 12.2454 43.9123 12.0302C43.7594 11.778 43.6844 11.4862 43.6965 11.1915C43.6879 10.9255 43.7468 10.6617 43.8675 10.4245C43.9883 10.1873 44.167 9.98449 44.3872 9.83492C44.6058 9.68029 44.8501 9.56548 45.1086 9.49576C45.3959 9.41708 45.6926 9.37766 45.9905 9.3786L45.972 9.38477ZM28.6379 9.38477C28.9792 9.37196 29.32 9.42213 29.6431 9.53276C29.8552 9.61225 30.0613 9.70705 30.2597 9.81642C30.3176 9.84137 30.3689 9.87942 30.4096 9.92758C30.4502 9.97573 30.4792 10.0327 30.4941 10.0939C30.5156 10.222 30.4962 10.3537 30.4386 10.4701L30.3214 10.6797C30.297 10.7382 30.2601 10.7907 30.2132 10.8333C30.1663 10.8759 30.1106 10.9077 30.0501 10.9264C29.9193 10.9474 29.7853 10.9258 29.6677 10.8647C29.5382 10.8031 29.3779 10.7414 29.1868 10.6736C28.9879 10.6076 28.7796 10.5743 28.5701 10.5749C28.3534 10.5595 28.1374 10.6135 27.9535 10.7291C27.8859 10.7784 27.8315 10.8435 27.7949 10.9188C27.7584 10.994 27.7408 11.0771 27.7438 11.1607C27.7432 11.2394 27.7627 11.317 27.8005 11.3861C27.8383 11.4551 27.893 11.5134 27.9596 11.5554C28.1302 11.6689 28.3146 11.7601 28.5084 11.8267L29.2176 12.0734C29.4679 12.1621 29.7078 12.2779 29.9329 12.4187C30.1506 12.5582 30.3373 12.7407 30.4817 12.9552C30.6318 13.2063 30.7067 13.4952 30.6975 13.7876C30.7001 14.038 30.6459 14.2856 30.5391 14.512C30.4323 14.7384 30.2757 14.9377 30.0809 15.0949C29.8694 15.2675 29.6265 15.3973 29.3656 15.4773C29.0653 15.5763 28.7506 15.6243 28.4344 15.6191C28.0135 15.632 27.5942 15.5607 27.2011 15.4094C26.9342 15.3027 26.6781 15.1705 26.4365 15.0148C26.3793 14.9857 26.3296 14.9439 26.2911 14.8926C26.2526 14.8413 26.2264 14.7818 26.2145 14.7188C26.2091 14.5874 26.2458 14.4578 26.3193 14.3488L26.5043 14.1515C26.5339 14.0983 26.5745 14.052 26.6234 14.0159C26.6723 13.9797 26.7285 13.9544 26.788 13.9418C26.9221 13.9301 27.0564 13.9626 27.1703 14.0343C27.3121 14.1083 27.491 14.1946 27.713 14.2933C27.9626 14.398 28.2317 14.4484 28.5023 14.4413C28.7207 14.4571 28.9381 14.3985 29.1189 14.2748C29.1901 14.2253 29.2478 14.1587 29.2866 14.0811C29.3254 14.0036 29.344 13.9175 29.3409 13.8308C29.341 13.753 29.3213 13.6765 29.2835 13.6085C29.2457 13.5405 29.1912 13.4833 29.1251 13.4423C28.9532 13.3311 28.769 13.2401 28.5763 13.171L27.8425 12.9182C27.5891 12.8216 27.3472 12.6976 27.121 12.5482C26.9026 12.4097 26.7156 12.2269 26.5722 12.0117C26.4193 11.7595 26.3442 11.4677 26.3563 11.173C26.3495 10.9112 26.408 10.6519 26.5264 10.4183C26.6448 10.1847 26.8195 9.98419 27.0347 9.83492C27.2475 9.6833 27.4855 9.57056 27.7376 9.50193C28.0249 9.42324 28.3216 9.38383 28.6194 9.38477H28.6379ZM49.9 7.18949C49.9563 7.18075 50.0138 7.18324 50.0692 7.19682C50.1245 7.21041 50.1766 7.23481 50.2225 7.26864C50.2683 7.30246 50.307 7.34503 50.3364 7.39389C50.3657 7.44275 50.3851 7.49693 50.3933 7.55332C50.3995 7.59626 50.3995 7.63987 50.3933 7.68281V10.0877C50.3933 10.1617 50.3933 10.2296 50.3933 10.2912V10.4454C50.3903 10.4926 50.3903 10.54 50.3933 10.5872C50.4733 10.4333 50.5728 10.2903 50.6893 10.1617C50.8237 10.011 50.9771 9.87837 51.1456 9.76709C51.3361 9.64423 51.544 9.55069 51.7623 9.4896C51.9939 9.41815 52.2352 9.38279 52.4776 9.38477C52.7564 9.36705 53.0359 9.40541 53.2997 9.49755C53.5634 9.5897 53.806 9.73377 54.0131 9.92125C54.4148 10.4026 54.6099 11.0233 54.5557 11.6479V14.9901C54.5645 15.0464 54.562 15.1039 54.5484 15.1592C54.5348 15.2146 54.5104 15.2667 54.4766 15.3126C54.4428 15.3584 54.4002 15.3971 54.3513 15.4265C54.3025 15.4558 54.2483 15.4752 54.1919 15.4834C54.149 15.4896 54.1053 15.4896 54.0624 15.4834H53.5629C53.4501 15.4993 53.3357 15.47 53.2444 15.4018C53.1532 15.3337 53.0925 15.2323 53.0758 15.1196C53.0696 15.0767 53.0696 15.0331 53.0758 14.9901V11.95C53.0877 11.6453 53.0242 11.3424 52.8908 11.0682C52.8086 10.9499 52.6957 10.8564 52.5641 10.7977C52.4326 10.739 52.2875 10.7174 52.1446 10.7352C51.9016 10.7327 51.6613 10.7854 51.4416 10.8894C51.2311 10.983 51.0452 11.1245 50.899 11.3025C50.7453 11.484 50.6281 11.6934 50.5537 11.9192C50.4668 12.171 50.425 12.4361 50.4303 12.7023V14.9778C50.4391 15.0341 50.4366 15.0916 50.423 15.1469C50.4094 15.2023 50.385 15.2544 50.3512 15.3002C50.3174 15.3461 50.2748 15.3848 50.2259 15.4141C50.1771 15.4435 50.1229 15.4628 50.0665 15.4711C50.0236 15.4773 49.98 15.4773 49.937 15.4711H49.4375C49.3816 15.4798 49.3244 15.4773 49.2695 15.4636C49.2145 15.45 49.1629 15.4255 49.1175 15.3916C49.0721 15.3577 49.034 15.3151 49.0053 15.2663C48.9766 15.2175 48.9579 15.1634 48.9504 15.1073C48.9442 15.0643 48.9442 15.0207 48.9504 14.9778V7.68281C48.9407 7.62685 48.9424 7.56953 48.9552 7.51421C48.9681 7.4589 48.9919 7.40672 49.0252 7.36074C49.0585 7.31477 49.1007 7.27593 49.1493 7.24652C49.1979 7.21711 49.2518 7.19772 49.308 7.18949C49.3507 7.18033 49.3949 7.18033 49.4375 7.18949H49.9ZM42.1549 9.52043C42.2104 9.51352 42.2667 9.51762 42.3206 9.53248C42.3744 9.54734 42.4249 9.57267 42.469 9.60703C42.5131 9.64139 42.55 9.68411 42.5775 9.73273C42.6051 9.78136 42.6229 9.83494 42.6297 9.89042C42.6359 9.9313 42.6359 9.97287 42.6297 10.0137V14.9901C42.6394 15.0456 42.638 15.1025 42.6255 15.1575C42.6131 15.2124 42.5898 15.2644 42.5571 15.3103C42.5244 15.3561 42.4829 15.3951 42.435 15.4248C42.3872 15.4545 42.3339 15.4745 42.2782 15.4834C42.2374 15.4896 42.1958 15.4896 42.1549 15.4834H41.6369C41.5242 15.4975 41.4105 15.4665 41.3204 15.3972C41.2304 15.328 41.1713 15.226 41.1559 15.1134C41.153 15.0724 41.153 15.0312 41.1559 14.9901V10.0137C41.1462 9.95824 41.1477 9.90135 41.1601 9.84639C41.1726 9.79143 41.1958 9.7395 41.2285 9.6936C41.2612 9.64771 41.3027 9.60877 41.3506 9.57904C41.3985 9.54931 41.4518 9.52939 41.5074 9.52043H42.1241H42.1549ZM32.2577 9.52043C32.3844 9.50839 32.5107 9.54706 32.6089 9.62797C32.7072 9.70888 32.7693 9.82543 32.7818 9.95208L33.7376 13.4362C33.7376 13.5225 33.7685 13.5965 33.7808 13.6705L33.8178 13.8678C33.8355 13.9325 33.8478 13.9985 33.8548 14.0651C33.8617 13.9985 33.8741 13.9325 33.8918 13.8678L33.9288 13.6705C33.9428 13.5914 33.9613 13.5131 33.9843 13.4362L34.9833 9.95208C35.0002 9.82597 35.0658 9.71149 35.1661 9.63313C35.2663 9.55477 35.3933 9.51874 35.5197 9.53276H35.9637C36.0893 9.52329 36.2139 9.56103 36.3131 9.63859C36.4124 9.71614 36.4791 9.82793 36.5002 9.95208L37.493 13.4362C37.5141 13.5132 37.5306 13.5915 37.5424 13.6705C37.5531 13.737 37.5676 13.8029 37.5855 13.8678L37.6225 14.0651L37.6595 13.8678C37.6595 13.8 37.6904 13.7321 37.7027 13.6705C37.715 13.6088 37.7335 13.5102 37.752 13.4362L38.6955 9.95208C38.7165 9.8269 38.7827 9.71378 38.8816 9.63421C38.9805 9.55463 39.1052 9.51415 39.232 9.52043H39.7685C39.839 9.51379 39.91 9.52435 39.9755 9.5512C40.041 9.57805 40.0991 9.62039 40.1446 9.67459C40.1809 9.73301 40.2032 9.79907 40.2096 9.86756C40.216 9.93605 40.2064 10.0051 40.1816 10.0692L38.6523 15.0703C38.6258 15.1932 38.5555 15.3022 38.4545 15.3771C38.3536 15.452 38.2288 15.4876 38.1035 15.4773H37.3635C37.2362 15.4885 37.1093 15.4517 37.0077 15.3741C36.9062 15.2965 36.8373 15.1837 36.8147 15.0579L35.9206 12.0795C35.9206 12.0055 35.8774 11.9254 35.8589 11.8452C35.8404 11.765 35.8589 11.7034 35.8157 11.6355C35.7897 11.5716 35.7691 11.5056 35.7541 11.4382C35.7541 11.506 35.7541 11.5677 35.7109 11.6355C35.6677 11.7034 35.7109 11.7712 35.6616 11.8452L35.6061 12.0795L34.7058 15.0579C34.686 15.1827 34.6196 15.2954 34.5201 15.3732C34.4205 15.451 34.2952 15.4882 34.1693 15.4773H33.3676C33.2438 15.4871 33.1207 15.4511 33.0218 15.3761C32.9229 15.301 32.855 15.1922 32.8312 15.0703L31.2895 10.0692C31.2641 10.0049 31.2547 9.93534 31.2623 9.86658C31.2698 9.79781 31.294 9.73191 31.3327 9.67459C31.3766 9.62005 31.4335 9.57737 31.4981 9.55044C31.5627 9.52351 31.6331 9.51319 31.7027 9.52043H32.2577Z" fill="#4A4A49"/>
<path fill-rule="evenodd" clip-rule="evenodd" d="M11.1621 18.9612C12.856 19.7762 14.7894 19.9441 16.5984 19.4334C18.4075 18.9226 19.9676 17.7684 20.9851 16.1879C22.0027 14.6073 22.4077 12.7094 22.1238 10.8512C21.8399 8.99297 20.8868 7.30253 19.4437 6.0979L17.2546 8.68166C17.8606 9.18935 18.3605 9.81156 18.7258 10.5127C19.091 11.2138 19.3144 11.9801 19.3831 12.7677C19.4518 13.5552 19.3646 14.3486 19.1263 15.1024C18.8881 15.8562 18.5035 16.5556 17.9946 17.1606C17.1813 18.1298 16.0877 18.8234 14.8643 19.1458C13.6408 19.4682 12.3475 19.4037 11.1621 18.9612Z" fill="url(#paint0_linear_15747_20797)"/>
<path fill-rule="evenodd" clip-rule="evenodd" d="M11.1621 18.9614C12.7075 19.7023 14.4555 19.9074 16.1304 19.5445C17.8053 19.1816 19.3117 18.2714 20.4119 16.9573C20.6928 16.6262 20.9446 16.2713 21.1642 15.8967C21.39 14.4321 21.1301 12.9339 20.4241 11.631C19.7181 10.3282 18.6049 9.29234 17.2546 8.68188C18.4775 9.70926 19.2423 11.1802 19.3811 12.7713C19.5198 14.3624 19.0211 15.9434 17.9946 17.167C17.18 18.1344 16.0861 18.8262 14.8629 19.1475C13.6396 19.4687 12.347 19.4038 11.1621 18.9614Z" fill="url(#paint1_linear_15747_20797)"/>
<path fill-rule="evenodd" clip-rule="evenodd" d="M17.8095 5.04354C16.116 4.23307 14.1849 4.06855 12.3787 4.58086C10.5725 5.09318 9.01536 6.2471 7.99957 7.82603C6.98379 9.40497 6.57919 11.3004 6.86173 13.1564C7.14427 15.0125 8.09451 16.7017 9.5341 17.9069L11.7047 15.3231C10.481 14.2966 9.71491 12.8261 9.57499 11.235C9.43507 9.64388 9.93273 8.06231 10.9586 6.83799C11.7734 5.86528 12.8705 5.17001 14.098 4.84851C15.3254 4.527 16.6225 4.59516 17.8095 5.04354Z" fill="url(#paint2_linear_15747_20797)"/>
<path fill-rule="evenodd" clip-rule="evenodd" d="M17.8096 5.04347C16.0625 4.21452 14.068 4.07134 12.2205 4.64227C10.373 5.2132 8.80696 6.45666 7.83218 8.12672C7.60917 9.58318 7.86646 11.0726 8.56515 12.3699C9.26383 13.6671 10.3659 14.7016 11.7047 15.3169C11.0983 14.8096 10.5979 14.1877 10.2321 13.4868C9.86627 12.7859 9.64231 12.0197 9.573 11.2322C9.50369 10.4446 9.5904 9.65106 9.82816 8.89704C10.0659 8.14302 10.4501 7.44329 10.9586 6.83792C11.774 5.86596 12.8711 5.17124 14.0983 4.84979C15.3256 4.52833 16.6224 4.59601 17.8096 5.04347Z" fill="url(#paint3_linear_15747_20797)"/>
</g>
<defs>
<linearGradient id="paint0_linear_15747_20797" x1="16.1052" y1="16.7489" x2="12.5959" y2="10.9354" gradientUnits="userSpaceOnUse">
<stop stop-color="#EF2131"/>
<stop offset="1" stop-color="#FECF2C"/>
</linearGradient>
<linearGradient id="paint1_linear_15747_20797" x1="18.1927" y1="10.871" x2="12.3227" y2="20.2209" gradientUnits="userSpaceOnUse">
<stop stop-color="#FBC52C"/>
<stop offset="0.26" stop-color="#F87130"/>
<stop offset="0.56" stop-color="#EF52E2"/>
<stop offset="1" stop-color="#661EEC"/>
</linearGradient>
<linearGradient id="paint2_linear_15747_20797" x1="11.8003" y1="6.95904" x2="15.1597" y2="12.5271" gradientUnits="userSpaceOnUse">
<stop stop-color="#78F6D8"/>
<stop offset="0.27" stop-color="#77D1F6"/>
<stop offset="0.55" stop-color="#70A4F3"/>
<stop offset="1" stop-color="#661EEC"/>
</linearGradient>
<linearGradient id="paint3_linear_15747_20797" x1="7.73796" y1="13.4188" x2="13.6079" y2="4.06892" gradientUnits="userSpaceOnUse">
<stop stop-color="#536EED"/>
<stop offset="0.25" stop-color="#54C3EC"/>
<stop offset="0.56" stop-color="#64D769"/>
<stop offset="1" stop-color="#FECF2C"/>
</linearGradient>
<clipPath id="clip0_15747_20797">
<rect width="50.6516" height="15.4286" fill="white" transform="translate(6.77148 4.28516)"/>
</clipPath>
</defs>
</svg>
