<svg width="50" height="24" viewBox="0 0 50 24" fill="none" xmlns="http://www.w3.org/2000/svg">
<rect x="0.199951" width="48.8571" height="24" rx="4" fill="white"/>
<g clip-path="url(#clip0_15747_20780)">
<path d="M20.1911 6.2064L15.3606 17.8128H12.2213L9.83946 8.5632C9.82029 8.34884 9.74725 8.14294 9.62723 7.9649C9.50722 7.78686 9.34417 7.64256 9.15348 7.5456C8.21437 7.09053 7.22202 6.75669 6.19995 6.552L6.26664 6.2064H11.3353C11.6672 6.20314 11.9889 6.32163 12.2404 6.53978C12.492 6.75793 12.6562 7.06084 12.7025 7.392L13.9649 14.112L17.0708 6.2064H20.1911ZM32.5292 14.0304C32.5292 10.968 28.3323 10.8 28.3514 9.4416C28.3514 9.0288 28.7611 8.5824 29.6138 8.4816C30.6165 8.38339 31.6272 8.55395 32.5435 8.976L33.0723 6.5184C32.1826 6.18129 31.2407 6.00577 30.2902 6C27.3558 6 25.255 7.584 25.255 9.84C25.255 11.5056 26.7365 12.4368 27.8655 13.0032C28.9945 13.5696 29.4185 13.9296 29.4185 14.4432C29.4185 15.216 28.4943 15.5568 27.6416 15.576C26.5779 15.5951 25.527 15.3407 24.588 14.8368L24.0402 17.3808C25.0971 17.7946 26.2218 18.0047 27.3558 18C30.4808 18 32.5102 16.4352 32.5244 14.0304H32.5292ZM40.3084 17.8128H43.0571L40.6466 6.2064H38.1171C37.8466 6.19909 37.5804 6.27576 37.3546 6.42602C37.1287 6.57627 36.9542 6.79285 36.8547 7.0464L32.372 17.7936H35.497L36.1115 16.08H39.9225L40.3084 17.8128ZM36.9738 13.704L38.5554 9.36L39.4605 13.7136L36.9738 13.704ZM24.4404 6.2064L21.9823 17.8128H19.0144L21.4725 6.2064H24.4404Z" fill="url(#paint0_linear_15747_20780)"/>
</g>
<defs>
<linearGradient id="paint0_linear_15747_20780" x1="5.12849" y1="12.0288" x2="41.9856" y2="12.0288" gradientUnits="userSpaceOnUse">
<stop stop-color="#272158"/>
<stop offset="1" stop-color="#164194"/>
</linearGradient>
<clipPath id="clip0_15747_20780">
<rect width="36.8571" height="12" fill="white" transform="translate(6.19995 6)"/>
</clipPath>
</defs>
</svg>
