<svg version="1.1" id="Layer_1" xmlns="http://www.w3.org/2000/svg"
    xmlns:xlink="http://www.w3.org/1999/xlink" x="0px" y="0px" viewBox="0 0 2500 538"
    style="enable-background:new 0 0 2500 538;" xml:space="preserve">
    <style type="text/css">
        .st0{fill:#09B3AF;}
        .st1{fill:#FFFFFF;}
    </style>
    <g>
        <path class="st0" d="M268.8,257.1h-108v51.8h105.4c6.2,0,11.9-2.6,16.6-6.7c4.2-4.1,6.7-10.4,6.7-18.1c0.1-6.7-1.9-13.2-5.7-18.6   C279.7,260.2,275.1,257.1,268.8,257.1L268.8,257.1z M272.5,194.4c4.7-3.1,6.7-9.8,6.7-18.6c0-7.8-2.1-13.5-5.7-17.1   c-3.6-3.1-8.3-5.2-13.5-5.2h-99.1v46.6h97.1C263.1,200.1,268.3,197.5,272.5,194.4L272.5,194.4z"/>
        <path class="st0" d="M430.8,3.4H23.4C10.4,3.4,0,13.7,0,26.1v407c0,12.4,10.4,20.2,22.8,20.2H83v81.3l74.7-80.8h273   c12.5,0,20.2-7.8,20.2-20.7V26.7c0-12.4-7.8-22.8-20.8-22.8L430.8,3.4z M362.3,333.2c-5.2,9.3-13,17.1-22.3,22.8   c-9.9,6.2-20.8,11.9-33.2,14.5c-12.5,3.1-25.9,5.7-40,5.7H83v-290h208.6c10.4,0,19.2,2.1,27.5,6.7c7.8,4.1,15.1,9.8,20.8,16.6   c11.6,14.1,17.9,31.9,17.6,50.2c0,13.5-3.6,26.4-10.4,38.8c-7,12.5-18,22.3-31.1,28c16.6,4.7,29.6,12.9,39.4,24.9   c9.3,12.4,14,28.5,14,48.7c0,12.9-2.6,23.8-7.8,33.1H362.3z"/>
        <path class="st1" d="M732.3,374.1c-18.2,0-35.8-2.6-53.5-8.3c-16.6-5.3-31.8-14.2-44.6-25.9l23.4-39.4c13,8.8,25.4,15.5,37.9,20.7   c11.1,4.8,23.2,7.3,35.3,7.2c8.3,0,15-1.6,19.7-4.7c4.7-2.6,6.7-7.2,6.7-12.9c0-5.2-2.6-10.4-8.8-13.5c-9.8-4.7-20-8.1-30.6-10.4   l-36.3-11.9c-9.9-4.1-17.7-8.3-23.9-12.9c-6.2-4.1-10.9-9.8-13.5-15.5c-2.8-6.5-4.2-13.6-4.2-20.7c-0.3-20.4,8.7-39.8,24.4-52.8   c7.3-6.2,16.6-10.9,27-14.5c10.4-3.6,21.8-5.2,33.7-5.2c16.1,0,31.1,2.1,45.2,6.2c14,4.7,27.5,12.4,40.5,23.8l-25.4,38.8   c-10-7.2-20.8-13.2-32.2-18.1c-9.9-4.1-18.7-5.7-28-5.7c-6.7,0-13,1-17.6,4.1c-5.2,2.6-7.3,7.2-7.3,13.5c0,6.2,2.6,10.4,7.8,13.5   c5.2,3.1,15.6,6.2,29.6,9.8c13,3.3,25.8,7.2,38.4,11.9c10.4,4.1,18.7,8.8,25.4,13.5c12.8,9.4,19.8,24.6,18.7,40.4   c0,21.2-7.8,37.8-23.9,50.2C780.6,367.9,759.8,374.1,732.3,374.1L732.3,374.1z M989.2,359.1c-10,4.1-20.2,7.5-30.6,10.4   c-11.4,3.1-22.8,5.2-34.8,5.2c-8.3,0-15.6-1-22.8-3.1c-7.1-2.1-13.6-5.6-19.2-10.4c-5.2-4.1-9.3-10.4-12.5-17.1   c-3.1-7.3-5.2-16.1-5.2-26.4V206.3h-27v-48.7h27.5V89.8H929v67.3h43.6v49.2H929v89.1c0,6.7,1.6,11.9,5.2,15.5   c3.6,2.6,8.3,4.1,13.5,4.1c5.2,0,10.4-0.5,15.1-2.6c5.2-1.6,9.9-3.1,13.5-5.2l12.5,51.8L989.2,359.1L989.2,359.1z M1110.6,374.1   c-16.5,0.3-32.9-2.7-48.3-8.8c-27-10.6-48.1-32.3-58.1-59.5c-10.2-27-10.2-56.9,0-83.9c10-27.2,31.1-48.9,58.1-59.5   c14-5.7,30.1-8.8,48.3-8.8c31.6-1.5,62.2,10.8,84.1,33.7c9.9,9.8,17.1,21.7,22.3,34.7c10.6,27.1,10.6,57.3,0,84.4   c-10,26.9-31,48.3-57.6,59C1143.9,371.5,1127.3,374.5,1110.6,374.1L1110.6,374.1z M1063.9,264.3c0,16.6,4.2,30,13,39.9   c9.3,10.4,20.8,15.5,34.3,15.5c13,0.3,25.5-5.5,33.7-15.5c4.3-5.2,7.6-11.2,9.9-17.6c2.6-6.7,3.6-14.5,3.6-22.3   c0-17.1-4.7-30.6-13.5-40.4c-8.8-10.4-20.2-15.5-33.7-15.5c-13,0-25.3,5.6-33.7,15.5c-4.2,5.2-7.8,10.4-10.4,17.6   C1064.7,248.9,1063.7,256.6,1063.9,264.3L1063.9,264.3z M1392.5,213.1c-15.6,0-30.1,2.6-43.1,7.8c-11.4,3.8-21.1,11.5-27.5,21.7   v127.9H1257V157.7h59.7v42.5c7.3-14.5,16.6-25.9,28.5-33.7c11.4-8.3,23.4-12.4,36.3-12.9h6.7l4.2,0.5V213.1z M1421,402.1   c9,3.1,18.5,4.9,28,5.2c7.8,0,14-2.6,18.7-7.8c4.2-5.2,7.8-15.5,11.4-29l-81-212.8h67l49.3,156.9l43.1-156.9h60.7l-81.5,247   c-12.8,42-55.6,67.2-98.6,58c-5.2-1-11.4-2.6-17.1-5.2L1421,402.1L1421,402.1z M1771.8,374.1c-16.1,0-30.6-3.1-42.6-10.4   c-12.1-6.6-22.2-16.5-29.1-28.5v35.2h-56.6V74.3h65.4v118.1c14.2-24.8,41-39.7,69.5-38.8c13.5,0,26,2.6,37.4,8.8   c11.4,5.2,20.8,13.5,29.6,23.3c25.5,35.3,32.5,80.8,18.7,122.2c-5.2,13.5-12.5,25.4-21.3,35.2   C1824.7,363,1798.9,374.3,1771.8,374.1L1771.8,374.1z M1753.7,319.7c21.1,0,39.8-13.3,46.7-33.1c7.6-20.9,3.9-44.2-9.9-61.6   c-8.1-10.7-20.8-16.8-34.2-16.6c-9.9,0-19.2,3.6-28,10.4c-8.3,7.2-15.1,16-19.7,26.9v44.5c8.4,17.6,26.1,28.9,45.7,29L1753.7,319.7   z M1903.2,74.3h64.9v220.1c0,16.6,6.7,24.3,20.8,24.3c7.4,0,14.7-1.8,21.3-5.2l8.8,48.2c-18.2,7.9-37.8,12.2-57.6,12.4   c-18.7,0-33.2-5.2-43.1-14.5c-10.4-10.4-15.6-23.8-15.6-42.5V74.3L1903.2,74.3L1903.2,74.3z M2141.4,374.1   c-16.5,0.3-32.9-2.7-48.3-8.8c-27.1-10.6-48.5-32.2-58.6-59.5c-15-40.7-6.7-86.3,21.8-119.1c10.4-10.4,21.8-18.1,36.3-24.3   c14-5.7,30.1-8.8,48.3-8.8c31.6-1.5,62.2,10.8,84.1,33.7c10.4,9.8,17.1,21.7,22.3,34.7c15.6,40.6,7.2,86.6-21.8,119.1   c-10.2,10.7-22.6,19-36.3,24.3c-15.3,6.1-31.8,9.1-48.3,8.8H2141.4L2141.4,374.1z M2094.1,264.3c0,16.6,4.2,30,13,39.9   c9.3,10.4,20.8,15.5,34.3,15.5c13,0.2,25.4-5.5,33.7-15.5c4.3-5.2,7.6-11.2,9.9-17.6c2.6-6.7,3.6-14.5,3.6-22.3   c0-17.1-4.7-30.6-13.5-40.4c-8.8-10.4-20.2-15.5-33.7-15.5c-13,0-25.3,5.6-33.7,15.5c-4.2,5.2-7.8,10.4-10.4,17.6   C2094.7,248.8,2094.1,256.1,2094.1,264.3L2094.1,264.3z M2431,370.5l-55.5-86l-22.8,23.8v62.1h-64.9V74.3h64.9v171.4l72.1-88h69   l-76.8,91.7l83,121.2H2431z"/>
    </g>
</svg>