<svg width="123" height="26" viewBox="0 0 123 26" fill="none" xmlns="http://www.w3.org/2000/svg">
    <path d="M35.7303 18.1944C34.8335 18.1944 33.9624 18.0659 33.0912 17.7833C32.2737 17.5177 31.5224 17.0797 30.8877 16.4987L32.0407 14.5462C32.6813 14.9829 33.2962 15.3169 33.9111 15.5738C34.5005 15.8308 35.0898 15.9335 35.6535 15.9335C36.0634 15.9335 36.3965 15.8565 36.6271 15.7023C36.8577 15.5738 36.9602 15.3426 36.9602 15.06C36.9602 14.8031 36.8321 14.5462 36.5246 14.392C36.0431 14.1606 35.5355 13.9881 35.0129 13.8782L33.2193 13.2873C32.7325 13.0818 32.3482 12.8762 32.0407 12.645C31.7332 12.4395 31.5026 12.1569 31.3745 11.8743C31.2351 11.5499 31.1652 11.1998 31.1696 10.8466C31.1546 9.83531 31.5974 8.87168 32.3738 8.22606C32.7325 7.91776 33.1937 7.68653 33.7062 7.50669C34.2186 7.32685 34.7823 7.24978 35.3716 7.24978C36.1659 7.24978 36.909 7.35254 37.6008 7.55808C38.2926 7.7893 38.9587 8.17467 39.5993 8.73989L38.3438 10.6668C37.8478 10.311 37.3153 10.0095 36.7552 9.76755C36.2684 9.56202 35.8328 9.48494 35.3716 9.48494C35.0385 9.48494 34.7311 9.53633 34.5005 9.69048C34.2442 9.81894 34.1417 10.0502 34.1417 10.3585C34.1417 10.6668 34.2699 10.8723 34.5261 11.0264C34.7823 11.1806 35.2947 11.3347 35.9865 11.5146C36.6288 11.6768 37.2618 11.8741 37.8826 12.1055C38.3951 12.311 38.805 12.5422 39.1381 12.7735C39.768 13.2386 40.1162 13.995 40.0605 14.7774C40.0605 15.8308 39.6762 16.6529 38.8819 17.2695C38.1132 17.8861 37.0883 18.1944 35.7303 18.1944ZM48.4134 17.4493C47.9778 17.6292 47.4654 17.809 46.9017 17.9632C46.338 18.1173 45.7743 18.2201 45.185 18.2201C44.775 18.2201 44.4163 18.1687 44.0576 18.0659C43.7088 17.964 43.3857 17.7888 43.1096 17.5521C42.8533 17.3466 42.6484 17.0383 42.4946 16.7043C42.3409 16.3446 42.2384 15.9078 42.2384 15.394V9.87032H40.906V7.45531H42.264V4.08971H45.4412V7.42962H47.5935V9.87032H45.4412V14.2893C45.4412 14.6233 45.5181 14.8802 45.6974 15.06C45.8768 15.1885 46.1074 15.2655 46.3636 15.2655C46.6198 15.2655 46.876 15.2399 47.1066 15.1371C47.3629 15.06 47.5935 14.9829 47.7728 14.8802L48.3878 17.4493H48.4134ZM54.409 18.1944C53.5937 18.2087 52.7837 18.0602 52.0261 17.7576C50.6928 17.2287 49.6485 16.1536 49.1564 14.8031C48.653 13.4617 48.653 11.9825 49.1564 10.6411C49.6485 9.29059 50.6928 8.21542 52.0261 7.68653C52.7179 7.40393 53.5122 7.24978 54.409 7.24978C55.9687 7.17616 57.4834 7.78555 58.5598 8.91973C59.0467 9.40787 59.4054 9.99878 59.6616 10.6411C60.1861 11.9874 60.1861 13.4824 59.6616 14.8288C59.1664 16.1626 58.1341 17.2257 56.8175 17.7576C56.052 18.0636 55.2329 18.2121 54.409 18.1944ZM52.103 12.7478C52.103 13.5699 52.308 14.2379 52.7436 14.726C53.2048 15.2399 53.7685 15.4968 54.4346 15.4968C55.0782 15.5092 55.692 15.2252 56.1001 14.726C56.3051 14.4691 56.4588 14.2122 56.5869 13.8525C56.715 13.5185 56.7663 13.1331 56.7663 12.7478C56.7663 11.9 56.5357 11.232 56.1001 10.7438C55.6645 10.23 55.1008 9.97307 54.4346 9.97307C53.7934 9.97163 53.1841 10.2536 52.7692 10.7438C52.5642 11.0007 52.3848 11.2577 52.2567 11.6173C52.1412 11.9825 52.0892 12.3649 52.103 12.7478ZM68.3219 10.2043C67.5533 10.2043 66.8358 10.3328 66.1953 10.5897C65.6314 10.7803 65.1513 11.1618 64.8373 11.6687V18.0145H61.6345V7.45531H64.5811V9.56202C64.9398 8.84266 65.401 8.27744 65.9903 7.89207C66.554 7.481 67.1433 7.27547 67.7839 7.24978H68.117L68.3219 7.27547V10.1786V10.2043ZM69.7312 19.5817C70.1768 19.7371 70.6433 19.8237 71.1148 19.8386C71.4991 19.8386 71.8066 19.7102 72.0372 19.4533C72.2422 19.1964 72.4215 18.6825 72.6009 18.0145L68.6038 7.45531H71.9091L74.3432 15.2399L76.4698 7.45531H79.4677L75.4449 19.7102C74.814 21.7917 72.6985 23.042 70.5767 22.5876C70.3205 22.5363 70.013 22.4592 69.7312 22.3307V19.5817ZM87.0519 18.1945C86.2576 18.1945 85.5401 18.0402 84.9508 17.6806C84.3521 17.3508 83.8556 16.8618 83.516 16.2675V18.0145H80.7232V3.31897H83.9516V9.17665C84.6524 7.94694 85.9731 7.20573 87.385 7.24978C88.0511 7.24978 88.6661 7.37824 89.2298 7.68653C89.7935 7.94345 90.2547 8.35452 90.6902 8.84266C91.9515 10.5977 92.2947 12.8536 91.6126 14.9059C91.3564 15.5738 90.9977 16.1648 90.5621 16.6529C89.6625 17.6419 88.3868 18.2021 87.0519 18.1945ZM86.1551 15.4968C87.1952 15.499 88.1217 14.8383 88.4611 13.8525C88.8368 12.8175 88.6527 11.6614 87.9743 10.7952C87.5737 10.2663 86.9454 9.96086 86.2832 9.97308C85.7964 9.97308 85.3352 10.1529 84.8996 10.4869C84.4896 10.8466 84.1565 11.2834 83.9259 11.8229V14.0324C84.3394 14.9065 85.2159 15.4657 86.1807 15.4711L86.1551 15.4968ZM93.5343 3.31897H96.7371V14.2379C96.7371 15.06 97.0702 15.4454 97.762 15.4454C98.1278 15.4465 98.4883 15.3583 98.8125 15.1885L99.2481 17.5778C98.3507 17.9719 97.3836 18.1815 96.404 18.1944C95.4816 18.1944 94.7642 17.9375 94.2774 17.475C93.7649 16.9612 93.5087 16.2932 93.5087 15.3683V3.31897H93.5343ZM105.295 18.1944C104.48 18.2087 103.67 18.0602 102.912 17.7576C101.571 17.232 100.517 16.157 100.017 14.8031C99.2758 12.7839 99.6881 10.5204 101.093 8.89404C101.605 8.38021 102.169 7.99483 102.886 7.68653C103.578 7.40393 104.373 7.24978 105.269 7.24978C106.829 7.17616 108.344 7.78555 109.42 8.91973C109.933 9.40787 110.266 9.99878 110.522 10.6411C111.292 12.6577 110.877 14.9366 109.446 16.5501C108.959 17.064 108.37 17.475 107.652 17.7576C106.895 18.0602 106.085 18.2087 105.269 18.1944H105.295ZM102.963 12.7478C102.963 13.5699 103.168 14.2379 103.604 14.726C104.065 15.2399 104.629 15.4968 105.295 15.4968C105.938 15.5055 106.55 15.2221 106.96 14.726C107.165 14.4691 107.319 14.2122 107.447 13.8525C107.575 13.5185 107.627 13.1331 107.627 12.7478C107.627 11.9 107.396 11.232 106.96 10.7438C106.525 10.23 105.961 9.97307 105.295 9.97307C104.654 9.97163 104.044 10.2536 103.63 10.7438C103.425 11.0007 103.245 11.2577 103.117 11.6173C102.989 11.977 102.963 12.3367 102.963 12.7478ZM119.592 18.0145L116.851 13.7497L115.723 14.9316V18.0145H112.52V3.31897H115.723V11.8229L119.285 7.45531H122.693L118.9 12.0027L123 18.0145H119.592Z" fill="#1B243F"/>
    <path d="M1.14014 0C0.506728 0 0 0.506823 0 1.11501V21.0331C0 21.6413 0.506728 22.0214 1.1148 22.0214H4.05382V26L7.70226 22.0468H21.0292C21.6373 22.0468 22.0173 21.6667 22.0173 21.0331V1.14035C22.0173 0.532164 21.6626 0 21.0292 0H1.14014Z" fill="#00B3B0"/>
    <path d="M14.261 3.98086C14.7674 3.98086 15.1979 4.08216 15.603 4.31008C15.9828 4.51268 16.3373 4.79125 16.6158 5.12047C17.1831 5.81234 17.488 6.68228 17.4768 7.57697C17.4768 8.23541 17.2995 8.86852 16.9703 9.47632C16.6291 10.0877 16.0948 10.5686 15.4511 10.8438C16.2614 11.0718 16.8944 11.477 17.3755 12.0594C17.8313 12.6672 18.0592 13.4523 18.0592 14.44C18.0592 15.0731 17.9437 15.6371 17.7047 16.0607C17.4514 16.5166 17.0716 16.8964 16.6158 17.175C16.1347 17.4789 15.603 17.7575 14.9953 17.8841C14.3876 18.0361 13.7292 18.1627 13.0456 18.1627H4.08186V3.98086H14.261ZM12.8067 11.9069H7.73191V14.3026H12.6847C12.9775 14.3026 13.2459 14.1828 13.4655 13.9911C13.6607 13.7995 13.7827 13.512 13.7827 13.1527C13.7897 12.8444 13.6957 12.542 13.5143 12.2902C13.3191 12.0507 13.0995 11.9069 12.8067 11.9069ZM12.392 7.11573H7.73191V9.27178H12.2944C12.5384 9.27178 12.7823 9.152 12.9775 9.00826C13.1971 8.86453 13.2947 8.5531 13.2947 8.14584C13.2947 7.7865 13.1971 7.52299 13.0263 7.35529C12.8555 7.21156 12.636 7.11573 12.392 7.11573Z" fill="white"/>
</svg>