<svg width="183" height="77" viewBox="0 0 183 77" fill="none" xmlns="http://www.w3.org/2000/svg">
<path d="M17.697 58.51C14.399 58.51 11.645 57.745 9.435 56.215C7.259 54.651 5.627 52.475 4.539 49.687C3.451 46.899 2.907 43.618 2.907 39.844C2.907 36.002 3.468 32.687 4.59 29.899C5.712 27.077 7.395 24.901 9.639 23.371C11.883 21.841 14.688 21.076 18.054 21.076C20.366 21.076 22.253 21.365 23.715 21.943C25.177 22.487 26.265 23.201 26.979 24.085C27.727 24.969 28.101 25.921 28.101 26.941C28.101 27.893 27.829 28.607 27.285 29.083C26.741 29.525 26.027 29.746 25.143 29.746C25.143 27.842 24.905 26.295 24.429 25.105C23.953 23.915 23.171 23.048 22.083 22.504C21.029 21.926 19.55 21.637 17.646 21.637C15.164 21.637 13.107 22.334 11.475 23.728C9.843 25.122 8.619 27.162 7.803 29.848C7.021 32.534 6.63 35.815 6.63 39.691C6.63 43.669 7.021 47.018 7.803 49.738C8.619 52.458 9.86 54.515 11.526 55.909C13.226 57.303 15.402 58 18.054 58C19.618 58 20.978 57.762 22.134 57.286C23.29 56.776 24.242 56.028 24.99 55.042C25.738 54.056 26.316 52.832 26.724 51.37C27.098 51.472 27.37 51.659 27.54 51.931C27.744 52.169 27.846 52.475 27.846 52.849C27.846 53.427 27.625 54.039 27.183 54.685C26.775 55.331 26.146 55.943 25.296 56.521C24.446 57.099 23.392 57.575 22.134 57.949C20.876 58.323 19.397 58.51 17.697 58.51ZM32.026 58V57.49H33.403C34.287 57.49 34.984 57.371 35.494 57.133C36.038 56.895 36.412 56.487 36.616 55.909C36.854 55.331 36.973 54.515 36.973 53.461V26.023C36.973 25.003 36.854 24.221 36.616 23.677C36.412 23.099 36.038 22.691 35.494 22.453C34.984 22.215 34.287 22.096 33.403 22.096H32.026V21.586H56.302L56.608 30.256H56.098L55.945 27.349C55.877 25.989 55.673 24.935 55.333 24.187C55.027 23.439 54.5 22.912 53.752 22.606C53.004 22.266 51.967 22.096 50.641 22.096H40.441V39.844H53.14V40.354H40.441V53.461C40.441 54.515 40.543 55.331 40.747 55.909C40.985 56.487 41.359 56.895 41.869 57.133C42.413 57.371 43.127 57.49 44.011 57.49H46V58H32.026Z" fill="white"/>
<path d="M73.6165 34.6989C72.4034 34.6989 71.3329 34.3807 70.4048 33.7443C69.4834 33.108 68.7642 32.2197 68.2472 31.0795C67.7301 29.9394 67.4716 28.6136 67.4716 27.1023C67.4716 25.5843 67.7301 24.2552 68.2472 23.1151C68.7642 21.9749 69.4834 21.0866 70.4048 20.4503C71.3329 19.8073 72.4034 19.4858 73.6165 19.4858C74.4848 19.4858 75.2505 19.6349 75.9134 19.9332C76.5829 20.2315 77.1496 20.6226 77.6136 21.1065C78.0843 21.5904 78.4555 22.1141 78.7273 22.6776C79.0057 23.241 79.1913 23.7879 79.2841 24.3182H78.8168C78.7173 23.8078 78.535 23.2973 78.2699 22.7869C78.0047 22.2699 77.6534 21.7992 77.2159 21.375C76.785 20.9441 76.268 20.5994 75.6648 20.3409C75.0682 20.0758 74.3854 19.9432 73.6165 19.9432C72.6023 19.9432 71.6643 20.2216 70.8026 20.7784C69.9408 21.3286 69.2448 22.1373 68.7145 23.2045C68.1908 24.2652 67.929 25.5644 67.929 27.1023C67.929 28.6534 68.1908 29.9593 68.7145 31.0199C69.2448 32.0805 69.9408 32.8826 70.8026 33.4261C71.6643 33.9697 72.6023 34.2415 73.6165 34.2415C74.3854 34.2415 75.0682 34.1122 75.6648 33.8537C76.268 33.5885 76.785 33.2405 77.2159 32.8097C77.6468 32.3788 77.9948 31.9081 78.2599 31.3977C78.5317 30.8807 78.7173 30.3703 78.8168 29.8665H79.2841C79.1913 30.3902 79.0057 30.9337 78.7273 31.4972C78.4555 32.0606 78.0843 32.5843 77.6136 33.0682C77.1496 33.5521 76.5829 33.9465 75.9134 34.2514C75.2505 34.5497 74.4848 34.6989 73.6165 34.6989ZM86.6222 34.7386C85.7472 34.7386 84.9616 34.4867 84.2656 33.983C83.5696 33.4725 83.0194 32.7831 82.6151 31.9148C82.2107 31.0464 82.0085 30.0653 82.0085 28.9716C82.0085 27.8778 82.2107 26.9001 82.6151 26.0384C83.0194 25.17 83.5696 24.4839 84.2656 23.9801C84.9616 23.4763 85.7472 23.2244 86.6222 23.2244C87.4905 23.2244 88.2694 23.4763 88.9588 23.9801C89.6548 24.4839 90.205 25.17 90.6094 26.0384C91.0137 26.9067 91.2159 27.8845 91.2159 28.9716C91.2159 30.0653 91.0137 31.0464 90.6094 31.9148C90.2116 32.7831 89.6648 33.4725 88.9687 33.983C88.2794 34.4867 87.4972 34.7386 86.6222 34.7386ZM86.6222 34.2813C87.411 34.2813 88.117 34.0492 88.7401 33.5852C89.3632 33.1212 89.8537 32.4882 90.2116 31.6861C90.5762 30.884 90.7585 29.9792 90.7585 28.9716C90.7585 27.9706 90.5762 27.0724 90.2116 26.277C89.8471 25.4749 89.3532 24.8419 88.7301 24.3778C88.107 23.9138 87.4044 23.6818 86.6222 23.6818C85.84 23.6818 85.134 23.9171 84.5043 24.3878C83.8812 24.8518 83.384 25.4815 83.0128 26.277C82.6482 27.0724 82.4659 27.9706 82.4659 28.9716C82.4659 29.9792 82.6482 30.884 83.0128 31.6861C83.3774 32.4882 83.8712 33.1212 84.4943 33.5852C85.1241 34.0492 85.8333 34.2813 86.6222 34.2813ZM94.4773 34.5V23.3835H94.9347V25.4815C95.2263 24.6927 95.6837 24.1193 96.3068 23.7614C96.9299 23.4034 97.5729 23.2244 98.2358 23.2244C98.9981 23.2244 99.6577 23.4465 100.214 23.8906C100.771 24.3348 101.149 24.9612 101.348 25.7699C101.593 24.9612 102.027 24.3348 102.651 23.8906C103.274 23.4465 103.99 23.2244 104.798 23.2244C105.839 23.2244 106.661 23.5658 107.264 24.2486C107.874 24.9313 108.179 25.8627 108.179 27.0426V34.5H107.722V27.0426C107.722 25.9688 107.456 25.1402 106.926 24.5568C106.402 23.9735 105.693 23.6818 104.798 23.6818C104.202 23.6818 103.658 23.8144 103.168 24.0795C102.677 24.3381 102.286 24.7192 101.994 25.223C101.703 25.7202 101.557 26.3267 101.557 27.0426V34.5H101.099V27.0426C101.099 25.9688 100.838 25.1402 100.314 24.5568C99.7969 23.9735 99.1042 23.6818 98.2358 23.6818C97.6127 23.6818 97.0526 23.8277 96.5554 24.1193C96.0582 24.4044 95.6638 24.7988 95.3722 25.3026C95.0805 25.8063 94.9347 26.3864 94.9347 27.0426V34.5H94.4773ZM112.116 38.6562V23.3835H112.574V26.2273H112.634C112.919 25.2992 113.399 24.5668 114.075 24.0298C114.751 23.4929 115.53 23.2244 116.412 23.2244C117.28 23.2244 118.033 23.4763 118.669 23.9801C119.312 24.4839 119.809 25.17 120.161 26.0384C120.512 26.9067 120.688 27.8845 120.688 28.9716C120.688 30.0653 120.512 31.0497 120.161 31.9247C119.816 32.7931 119.322 33.4792 118.679 33.983C118.043 34.4867 117.287 34.7386 116.412 34.7386C115.517 34.7386 114.735 34.4669 114.065 33.9233C113.402 33.3731 112.925 32.6373 112.634 31.7159H112.574V38.6562H112.116ZM116.412 34.2813C117.194 34.2813 117.87 34.0492 118.44 33.5852C119.01 33.1146 119.451 32.4782 119.763 31.6761C120.074 30.8741 120.23 29.9725 120.23 28.9716C120.23 27.9706 120.074 27.0724 119.763 26.277C119.451 25.4749 119.01 24.8419 118.44 24.3778C117.87 23.9138 117.194 23.6818 116.412 23.6818C115.63 23.6818 114.95 23.9138 114.374 24.3778C113.804 24.8419 113.359 25.4749 113.041 26.277C112.73 27.0724 112.574 27.9706 112.574 28.9716C112.574 29.9725 112.73 30.8741 113.041 31.6761C113.353 32.4782 113.794 33.1146 114.364 33.5852C114.94 34.0492 115.623 34.2813 116.412 34.2813ZM127.886 34.7386C127.011 34.7386 126.226 34.4867 125.53 33.983C124.834 33.4725 124.284 32.7831 123.879 31.9148C123.475 31.0464 123.273 30.0653 123.273 28.9716C123.273 27.8778 123.475 26.9001 123.879 26.0384C124.284 25.17 124.834 24.4839 125.53 23.9801C126.226 23.4763 127.011 23.2244 127.886 23.2244C128.755 23.2244 129.534 23.4763 130.223 23.9801C130.919 24.4839 131.469 25.17 131.874 26.0384C132.278 26.9067 132.48 27.8845 132.48 28.9716C132.48 30.0653 132.278 31.0464 131.874 31.9148C131.476 32.7831 130.929 33.4725 130.233 33.983C129.544 34.4867 128.761 34.7386 127.886 34.7386ZM127.886 34.2813C128.675 34.2813 129.381 34.0492 130.004 33.5852C130.627 33.1212 131.118 32.4882 131.476 31.6861C131.84 30.884 132.023 29.9792 132.023 28.9716C132.023 27.9706 131.84 27.0724 131.476 26.277C131.111 25.4749 130.617 24.8419 129.994 24.3778C129.371 23.9138 128.669 23.6818 127.886 23.6818C127.104 23.6818 126.398 23.9171 125.768 24.3878C125.145 24.8518 124.648 25.4815 124.277 26.277C123.912 27.0724 123.73 27.9706 123.73 28.9716C123.73 29.9792 123.912 30.884 124.277 31.6861C124.642 32.4882 125.135 33.1212 125.759 33.5852C126.388 34.0492 127.098 34.2813 127.886 34.2813ZM138.784 34.7386C137.796 34.7386 136.988 34.4967 136.358 34.0128C135.728 33.5223 135.317 32.8362 135.125 31.9545L135.582 31.8452C135.92 33.4692 136.988 34.2813 138.784 34.2813C139.745 34.2813 140.524 34.0426 141.121 33.5653C141.724 33.0881 142.026 32.465 142.026 31.696C142.026 30.5161 141.31 29.7472 139.878 29.3892L138.148 28.9517C137.293 28.7396 136.643 28.3916 136.199 27.9077C135.761 27.4238 135.543 26.8371 135.543 26.1477C135.543 25.2727 135.861 24.5668 136.497 24.0298C137.14 23.4929 137.969 23.2244 138.983 23.2244C140.713 23.2244 141.847 24.0597 142.384 25.7301L141.926 25.8494C141.475 24.4044 140.494 23.6818 138.983 23.6818C138.095 23.6818 137.375 23.9072 136.825 24.358C136.275 24.8087 136 25.4053 136 26.1477C136 26.7244 136.182 27.215 136.547 27.6193C136.918 28.017 137.478 28.312 138.227 28.5043L139.977 28.9418C140.786 29.1473 141.406 29.4853 141.837 29.956C142.268 30.4266 142.483 31.0066 142.483 31.696C142.483 32.2992 142.324 32.8295 142.006 33.2869C141.694 33.7443 141.26 34.1023 140.703 34.3608C140.146 34.6127 139.507 34.7386 138.784 34.7386ZM148.31 34.7386C147.7 34.7386 147.136 34.6127 146.619 34.3608C146.102 34.1089 145.688 33.741 145.376 33.2571C145.065 32.7732 144.909 32.1866 144.909 31.4972C144.909 30.9934 145.022 30.5327 145.247 30.1151C145.473 29.6974 145.887 29.3395 146.49 29.0412C147.1 28.7429 147.972 28.5275 149.105 28.3949C149.622 28.3352 150.106 28.2689 150.557 28.196C151.014 28.1165 151.382 28.0005 151.661 27.848C151.946 27.6889 152.088 27.4669 152.088 27.1818V26.5256C152.088 25.6638 151.8 24.9744 151.223 24.4574C150.653 23.9403 149.894 23.6818 148.946 23.6818C148.164 23.6818 147.478 23.8542 146.888 24.1989C146.304 24.5436 145.897 25.0275 145.665 25.6506L145.227 25.4716C145.492 24.7822 145.96 24.2353 146.629 23.831C147.305 23.4266 148.078 23.2244 148.946 23.2244C150.073 23.2244 150.955 23.5393 151.591 24.169C152.227 24.7921 152.545 25.5777 152.545 26.5256V34.5H152.088V32.2528H152.028C151.684 32.9953 151.187 33.5952 150.537 34.0526C149.887 34.5099 149.145 34.7386 148.31 34.7386ZM148.31 34.2813C149.012 34.2813 149.649 34.0923 150.219 33.7145C150.789 33.33 151.243 32.7964 151.581 32.1136C151.919 31.4309 152.088 30.642 152.088 29.7472V28.0767C151.816 28.2822 151.438 28.4413 150.955 28.554C150.477 28.6667 149.92 28.7595 149.284 28.8324C148.29 28.9451 147.508 29.1207 146.937 29.3594C146.367 29.598 145.963 29.8963 145.724 30.2543C145.486 30.6056 145.366 31.0199 145.366 31.4972C145.366 32.3324 145.648 33.0052 146.212 33.5156C146.782 34.026 147.481 34.2813 148.31 34.2813ZM160.778 34.7386C159.884 34.7386 159.101 34.4669 158.432 33.9233C157.769 33.3731 157.292 32.6373 157 31.7159H156.94V34.5H156.483V19.6847H156.94V26.2273H157C157.285 25.2992 157.766 24.5668 158.442 24.0298C159.118 23.4929 159.897 23.2244 160.778 23.2244C161.647 23.2244 162.399 23.4763 163.036 23.9801C163.678 24.4839 164.176 25.17 164.527 26.0384C164.878 26.9067 165.054 27.8845 165.054 28.9716C165.054 30.0653 164.878 31.0497 164.527 31.9247C164.182 32.7931 163.688 33.4792 163.045 33.983C162.409 34.4867 161.653 34.7386 160.778 34.7386ZM160.778 34.2813C161.561 34.2813 162.237 34.0492 162.807 33.5852C163.377 33.1146 163.818 32.4782 164.129 31.6761C164.441 30.8741 164.597 29.9725 164.597 28.9716C164.597 27.9706 164.441 27.0724 164.129 26.277C163.818 25.4749 163.377 24.8419 162.807 24.3778C162.237 23.9138 161.561 23.6818 160.778 23.6818C159.996 23.6818 159.317 23.9138 158.74 24.3778C158.17 24.8419 157.726 25.4749 157.408 26.277C157.096 27.0724 156.94 27.9706 156.94 28.9716C156.94 29.9725 157.096 30.8741 157.408 31.6761C157.719 32.4782 158.16 33.1146 158.73 33.5852C159.307 34.0492 159.99 34.2813 160.778 34.2813ZM168.773 19.6847V34.5H168.315V19.6847H168.773ZM176.866 34.7386C175.899 34.7386 175.05 34.4867 174.321 33.983C173.598 33.4725 173.035 32.7831 172.631 31.9148C172.233 31.0398 172.034 30.0587 172.034 28.9716C172.034 27.8845 172.236 26.9067 172.641 26.0384C173.045 25.17 173.595 24.4839 174.291 23.9801C174.987 23.4763 175.773 23.2244 176.648 23.2244C177.516 23.2244 178.292 23.4631 178.974 23.9403C179.657 24.4176 180.194 25.0705 180.585 25.8991C180.983 26.7211 181.182 27.6525 181.182 28.6932V28.9517H172.491C172.498 29.9195 172.67 30.8078 173.009 31.6165C173.353 32.4252 173.85 33.0715 174.5 33.5554C175.15 34.0393 175.938 34.2813 176.866 34.2813C177.556 34.2813 178.133 34.1619 178.597 33.9233C179.061 33.678 179.435 33.3963 179.72 33.0781C180.005 32.7599 180.214 32.4915 180.347 32.2727L180.724 32.5313C180.559 32.8097 180.31 33.1212 179.979 33.4659C179.654 33.8106 179.233 34.1089 178.716 34.3608C178.205 34.6127 177.589 34.7386 176.866 34.7386ZM172.501 28.4943H180.734C180.708 27.5994 180.512 26.7874 180.148 26.0582C179.79 25.3291 179.309 24.7524 178.706 24.3281C178.103 23.8973 177.417 23.6818 176.648 23.6818C175.919 23.6818 175.249 23.8906 174.639 24.3082C174.029 24.7259 173.532 25.2992 173.148 26.0284C172.763 26.7509 172.548 27.5729 172.501 28.4943Z" fill="white"/>
<path d="M67.9588 57.5V42.6847H76.5795V43.9474H69.3707V49.5753H75.8935V50.8381H69.3707V57.5H67.9588ZM78.9957 57.5V46.3835H80.3082V48.1136H80.4077C80.6264 47.5436 81.0109 47.0895 81.5611 46.7514C82.1179 46.4067 82.741 46.2344 83.4304 46.2344C83.5365 46.2344 83.6558 46.2377 83.7884 46.2443C83.9209 46.2443 84.0303 46.2476 84.1165 46.2543V47.6065C84.0701 47.5999 83.9706 47.5866 83.8182 47.5668C83.6657 47.5469 83.5 47.5369 83.321 47.5369C82.4593 47.5369 81.7467 47.8054 81.1832 48.3423C80.6264 48.8726 80.348 49.5488 80.348 50.3707V57.5H78.9957ZM90.3111 57.7386C89.3433 57.7386 88.4915 57.4967 87.7557 57.0128C87.0199 56.5223 86.4432 55.8461 86.0256 54.9844C85.608 54.1226 85.3991 53.1283 85.3991 52.0014C85.3991 50.8613 85.608 49.8603 86.0256 48.9986C86.4432 48.1302 87.0199 47.4541 87.7557 46.9702C88.4915 46.4796 89.3433 46.2344 90.3111 46.2344C91.2723 46.2344 92.1207 46.4796 92.8565 46.9702C93.599 47.4541 94.179 48.1302 94.5966 48.9986C95.0142 49.8603 95.223 50.8613 95.223 52.0014C95.223 53.1283 95.0142 54.1226 94.5966 54.9844C94.179 55.8461 93.599 56.5223 92.8565 57.0128C92.1207 57.4967 91.2723 57.7386 90.3111 57.7386ZM90.3111 56.5156C91.0734 56.5156 91.7164 56.3101 92.2401 55.8991C92.7704 55.4882 93.1747 54.9413 93.4531 54.2585C93.7315 53.5758 93.8707 52.8234 93.8707 52.0014C93.8707 51.1728 93.7315 50.4171 93.4531 49.7344C93.1747 49.045 92.7704 48.4948 92.2401 48.0838C91.7098 47.6662 91.0668 47.4574 90.3111 47.4574C89.5554 47.4574 88.9124 47.6662 88.3821 48.0838C87.8584 48.4948 87.4574 49.045 87.179 49.7344C86.9006 50.4171 86.7614 51.1728 86.7614 52.0014C86.7614 52.8234 86.8973 53.5758 87.169 54.2585C87.4474 54.9413 87.8518 55.4882 88.3821 55.8991C88.9124 56.3101 89.5554 56.5156 90.3111 56.5156ZM99.3991 50.5696V57.5H98.0469V46.3835H99.3494L99.3594 48.4318C99.6974 47.6629 100.171 47.1061 100.781 46.7614C101.391 46.41 102.074 46.2344 102.83 46.2344C103.956 46.2344 104.871 46.5857 105.574 47.2884C106.277 47.9844 106.628 48.992 106.628 50.3111V57.5H105.286V50.4105C105.286 49.5024 105.03 48.7865 104.52 48.2628C104.009 47.7325 103.327 47.4673 102.472 47.4673C101.597 47.4673 100.864 47.7457 100.274 48.3026C99.6908 48.8594 99.3991 49.6151 99.3991 50.5696ZM113.797 46.3835V47.5568H111.51V54.875C111.51 55.9886 112.007 56.4957 113.001 56.3963C113.094 56.3963 113.207 56.3864 113.339 56.3665C113.479 56.34 113.608 56.3134 113.727 56.2869L114.006 57.4503C113.721 57.5431 113.383 57.5961 112.991 57.6094C112.11 57.669 111.417 57.4602 110.913 56.983C110.41 56.4991 110.158 55.8262 110.158 54.9645V47.5568H108.507V46.3835H110.158V43.7386H111.51V46.3835H113.797ZM120.449 57.7386C119.408 57.7386 118.507 57.4967 117.744 57.0128C116.989 56.5223 116.402 55.8461 115.984 54.9844C115.573 54.1226 115.368 53.1316 115.368 52.0114C115.368 50.8911 115.57 49.8968 115.974 49.0284C116.385 48.16 116.955 47.4773 117.685 46.9801C118.42 46.483 119.272 46.2344 120.24 46.2344C121.049 46.2344 121.814 46.4332 122.537 46.831C123.259 47.2287 123.846 47.8352 124.297 48.6506C124.748 49.4659 124.973 50.5033 124.973 51.7628V52.3494H116.73C116.757 53.6155 117.105 54.6297 117.774 55.392C118.444 56.1477 119.339 56.5256 120.459 56.5256C121.234 56.5256 121.871 56.3466 122.368 55.9886C122.865 55.6307 123.216 55.2064 123.422 54.7159L124.705 55.1236C124.453 55.8196 123.959 56.4295 123.223 56.9531C122.494 57.4768 121.569 57.7386 120.449 57.7386ZM116.73 51.1861H123.611C123.538 50.1056 123.206 49.214 122.616 48.5114C122.027 47.8021 121.234 47.4474 120.24 47.4474C119.571 47.4474 118.981 47.6165 118.47 47.9545C117.96 48.2926 117.552 48.7467 117.247 49.3168C116.942 49.8802 116.77 50.5033 116.73 51.1861ZM129.109 50.5696V57.5H127.757V46.3835H129.06L129.07 48.4318C129.408 47.6629 129.882 47.1061 130.491 46.7614C131.101 46.41 131.784 46.2344 132.54 46.2344C133.667 46.2344 134.581 46.5857 135.284 47.2884C135.987 47.9844 136.338 48.992 136.338 50.3111V57.5H134.996V50.4105C134.996 49.5024 134.741 48.7865 134.23 48.2628C133.72 47.7325 133.037 47.4673 132.182 47.4673C131.307 47.4673 130.574 47.7457 129.984 48.3026C129.401 48.8594 129.109 49.6151 129.109 50.5696ZM143.726 57.7386C142.818 57.7386 142.022 57.5 141.339 57.0227C140.657 56.5388 140.123 55.866 139.739 55.0043C139.361 54.1359 139.172 53.125 139.172 51.9716C139.172 50.8248 139.364 49.8239 139.749 48.9688C140.133 48.107 140.667 47.4375 141.349 46.9602C142.039 46.4763 142.834 46.2344 143.736 46.2344C144.412 46.2344 144.975 46.357 145.426 46.6023C145.877 46.8409 146.238 47.1359 146.51 47.4872C146.788 47.8385 147 48.1832 147.146 48.5213H147.256V42.6847H148.598V57.5H147.295V55.4219H147.146C147 55.7666 146.788 56.1179 146.51 56.4759C146.232 56.8338 145.864 57.1354 145.406 57.3807C144.955 57.6193 144.395 57.7386 143.726 57.7386ZM143.905 56.5156C144.621 56.5156 145.227 56.3201 145.724 55.929C146.228 55.5379 146.609 55.0009 146.868 54.3182C147.133 53.6288 147.266 52.8433 147.266 51.9616C147.266 51.08 147.133 50.3011 146.868 49.625C146.609 48.9489 146.228 48.4186 145.724 48.0341C145.227 47.6496 144.621 47.4574 143.905 47.4574C143.176 47.4574 142.559 47.6563 142.055 48.054C141.558 48.4517 141.18 48.992 140.922 49.6747C140.663 50.3509 140.534 51.1132 140.534 51.9616C140.534 52.8168 140.663 53.589 140.922 54.2784C141.187 54.9612 141.568 55.5047 142.065 55.9091C142.569 56.3134 143.182 56.5156 143.905 56.5156ZM155.558 57.7386C154.464 57.7386 153.56 57.4934 152.844 57.0028C152.134 56.5057 151.68 55.7898 151.482 54.8551L152.774 54.5469C152.933 55.2164 153.248 55.7169 153.719 56.0483C154.196 56.3731 154.803 56.5355 155.538 56.5355C156.38 56.5355 157.053 56.3466 157.557 55.9688C158.067 55.5909 158.322 55.1203 158.322 54.5568C158.322 53.6553 157.719 53.0587 156.513 52.767L154.703 52.3295C152.801 51.8722 151.849 50.8878 151.849 49.3764C151.849 48.7533 152.015 48.2064 152.347 47.7358C152.685 47.2652 153.145 46.8973 153.729 46.6321C154.319 46.367 154.988 46.2344 155.737 46.2344C156.785 46.2344 157.613 46.473 158.223 46.9503C158.839 47.4209 159.277 48.0573 159.536 48.8594L158.303 49.1776C158.13 48.6671 157.842 48.2462 157.438 47.9148C157.04 47.5767 156.476 47.4077 155.747 47.4077C155.011 47.4077 154.405 47.5866 153.928 47.9446C153.45 48.2959 153.212 48.7467 153.212 49.2969C153.212 50.2116 153.875 50.8281 155.2 51.1463L156.901 51.554C158.777 52.0047 159.714 52.9792 159.714 54.4773C159.714 55.1136 159.539 55.6771 159.188 56.1676C158.836 56.6581 158.346 57.0426 157.716 57.321C157.093 57.5994 156.374 57.7386 155.558 57.7386Z" fill="white"/>
</svg>
