<svg width="93" height="39" viewBox="0 0 93 39" fill="none" xmlns="http://www.w3.org/2000/svg">
<path d="M8.96342 30.2583C7.293 30.2583 5.89812 29.8708 4.77877 29.0959C3.67664 28.3038 2.85004 27.2016 2.29897 25.7895C1.74791 24.3774 1.47238 22.7156 1.47238 20.8041C1.47238 18.8582 1.75652 17.1791 2.32481 15.767C2.89309 14.3377 3.74552 13.2356 4.88209 12.4606C6.01866 11.6857 7.43938 11.2982 9.14423 11.2982C10.3152 11.2982 11.271 11.4446 12.0115 11.7374C12.752 12.0129 13.3031 12.3745 13.6647 12.8223C14.0435 13.27 14.233 13.7522 14.233 14.2688C14.233 14.751 14.0952 15.1126 13.8197 15.3537C13.5441 15.5776 13.1825 15.6895 12.7348 15.6895C12.7348 14.7252 12.6142 13.9416 12.3731 13.3389C12.132 12.7362 11.736 12.297 11.1849 12.0215C10.6511 11.7288 9.90195 11.5824 8.93758 11.5824C7.68047 11.5824 6.63861 11.9354 5.81201 12.6415C4.98542 13.3475 4.36547 14.3808 3.95217 15.7412C3.55609 17.1016 3.35805 18.7634 3.35805 20.7266C3.35805 22.7414 3.55609 24.4377 3.95217 25.8154C4.36547 27.193 4.99403 28.2349 5.83784 28.9409C6.69888 29.647 7.80101 30 9.14423 30C9.93639 30 10.6252 29.8795 11.2107 29.6384C11.7962 29.3801 12.2784 29.0012 12.6573 28.5018C13.0361 28.0024 13.3289 27.3824 13.5355 26.6419C13.725 26.6936 13.8627 26.7883 13.9488 26.9261C14.0522 27.0466 14.1038 27.2016 14.1038 27.3911C14.1038 27.6838 13.9919 27.9938 13.768 28.321C13.5614 28.6482 13.2428 28.9581 12.8123 29.2509C12.3817 29.5436 11.8479 29.7847 11.2107 29.9742C10.5736 30.1636 9.82445 30.2583 8.96342 30.2583ZM16.221 30V29.7417H16.9184C17.3661 29.7417 17.7192 29.6814 17.9775 29.5609C18.253 29.4403 18.4424 29.2337 18.5458 28.9409C18.6663 28.6482 18.7266 28.2349 18.7266 27.701V13.8039C18.7266 13.2872 18.6663 12.8912 18.5458 12.6156C18.4424 12.3229 18.253 12.1162 17.9775 11.9957C17.7192 11.8751 17.3661 11.8149 16.9184 11.8149H16.221V11.5565H28.5166L28.6716 15.9478H28.4133L28.3358 14.4755C28.3013 13.7866 28.198 13.2528 28.0258 12.8739C27.8708 12.4951 27.6039 12.2282 27.225 12.0732C26.8462 11.901 26.321 11.8149 25.6493 11.8149H20.4831V20.8041H26.9151V21.0624H20.4831V27.701C20.4831 28.2349 20.5348 28.6482 20.6381 28.9409C20.7586 29.2337 20.9481 29.4403 21.2064 29.5609C21.4819 29.6814 21.8435 29.7417 22.2913 29.7417H23.2987V30H16.221Z" fill="#543B95"/>
<path d="M36.8966 17.6267C36.2822 17.6267 35.74 17.4656 35.27 17.1433C34.8033 16.8209 34.439 16.371 34.1771 15.7936C33.9152 15.2161 33.7843 14.5446 33.7843 13.7791C33.7843 13.0102 33.9152 12.3371 34.1771 11.7596C34.439 11.1821 34.8033 10.7322 35.27 10.4099C35.74 10.0842 36.2822 9.9214 36.8966 9.9214C37.3365 9.9214 37.7242 9.99695 38.06 10.148C38.3991 10.2991 38.6862 10.4972 38.9212 10.7423C39.1596 10.9874 39.3476 11.2526 39.4852 11.538C39.6262 11.8234 39.7202 12.1004 39.7672 12.369H39.5305C39.4802 12.1105 39.3879 11.8519 39.2536 11.5934C39.1193 11.3315 38.9413 11.0931 38.7197 10.8783C38.5015 10.66 38.2396 10.4855 37.9341 10.3545C37.6319 10.2202 37.2861 10.1531 36.8966 10.1531C36.3829 10.1531 35.9079 10.2941 35.4714 10.5761C35.0349 10.8548 34.6824 11.2644 34.4138 11.8049C34.1486 12.3421 34.016 13.0002 34.016 13.7791C34.016 14.5647 34.1486 15.2262 34.4138 15.7633C34.6824 16.3005 35.0349 16.7068 35.4714 16.9821C35.9079 17.2574 36.3829 17.3951 36.8966 17.3951C37.2861 17.3951 37.6319 17.3296 37.9341 17.1987C38.2396 17.0644 38.5015 16.8881 38.7197 16.6699C38.938 16.4516 39.1142 16.2132 39.2485 15.9547C39.3862 15.6928 39.4802 15.4343 39.5305 15.1792H39.7672C39.7202 15.4444 39.6262 15.7197 39.4852 16.0051C39.3476 16.2905 39.1596 16.5557 38.9212 16.8008C38.6862 17.0459 38.3991 17.2457 38.06 17.4001C37.7242 17.5512 37.3365 17.6267 36.8966 17.6267ZM43.4839 17.6469C43.0407 17.6469 42.6429 17.5193 42.2904 17.2641C41.9378 17.0056 41.6592 16.6564 41.4544 16.2166C41.2496 15.7768 41.1472 15.2799 41.1472 14.7259C41.1472 14.1719 41.2496 13.6767 41.4544 13.2402C41.6592 12.8004 41.9378 12.4529 42.2904 12.1977C42.6429 11.9426 43.0407 11.815 43.4839 11.815C43.9238 11.815 44.3183 11.9426 44.6674 12.1977C45.02 12.4529 45.2986 12.8004 45.5034 13.2402C45.7082 13.6801 45.8106 14.1753 45.8106 14.7259C45.8106 15.2799 45.7082 15.7768 45.5034 16.2166C45.302 16.6564 45.025 17.0056 44.6725 17.2641C44.3233 17.5193 43.9271 17.6469 43.4839 17.6469ZM43.4839 17.4152C43.8835 17.4152 44.241 17.2977 44.5566 17.0627C44.8722 16.8277 45.1207 16.507 45.302 16.1008C45.4866 15.6945 45.579 15.2362 45.579 14.7259C45.579 14.2189 45.4866 13.764 45.302 13.3611C45.1173 12.9548 44.8672 12.6342 44.5516 12.3992C44.236 12.1642 43.8801 12.0467 43.4839 12.0467C43.0878 12.0467 42.7302 12.1659 42.4112 12.4042C42.0956 12.6392 41.8438 12.9582 41.6558 13.3611C41.4711 13.764 41.3788 14.2189 41.3788 14.7259C41.3788 15.2362 41.4711 15.6945 41.6558 16.1008C41.8405 16.507 42.0906 16.8277 42.4062 17.0627C42.7251 17.2977 43.0844 17.4152 43.4839 17.4152ZM47.4625 17.526V11.8956H47.6942V12.9582C47.8419 12.5587 48.0735 12.2683 48.3891 12.087C48.7047 11.9056 49.0304 11.815 49.3662 11.815C49.7523 11.815 50.0863 11.9275 50.3684 12.1524C50.6504 12.3774 50.8418 12.6946 50.9425 13.1043C51.0667 12.6946 51.2866 12.3774 51.6022 12.1524C51.9178 11.9275 52.2804 11.815 52.69 11.815C53.2171 11.815 53.6335 11.9879 53.939 12.3337C54.2479 12.6795 54.4023 13.1513 54.4023 13.7489V17.526H54.1707V13.7489C54.1707 13.205 54.0364 12.7853 53.7678 12.4898C53.5025 12.1944 53.1433 12.0467 52.69 12.0467C52.3879 12.0467 52.1125 12.1138 51.8641 12.2481C51.6156 12.379 51.4176 12.5721 51.2698 12.8273C51.1221 13.0791 51.0482 13.3863 51.0482 13.7489V17.526H50.8166V13.7489C50.8166 13.205 50.684 12.7853 50.4187 12.4898C50.1568 12.1944 49.806 12.0467 49.3662 12.0467C49.0506 12.0467 48.7669 12.1205 48.5151 12.2683C48.2632 12.4126 48.0635 12.6124 47.9157 12.8676C47.768 13.1227 47.6942 13.4165 47.6942 13.7489V17.526H47.4625ZM56.3966 19.6311V11.8956H56.6283V13.3359H56.6585C56.8029 12.8659 57.0463 12.4949 57.3888 12.2229C57.7312 11.951 58.1257 11.815 58.5723 11.815C59.0121 11.815 59.3932 11.9426 59.7155 12.1977C60.0411 12.4529 60.2929 12.8004 60.4709 13.2402C60.6488 13.6801 60.7378 14.1753 60.7378 14.7259C60.7378 15.2799 60.6488 15.7785 60.4709 16.2216C60.2963 16.6615 60.0462 17.009 59.7205 17.2641C59.3982 17.5193 59.0154 17.6469 58.5723 17.6469C58.119 17.6469 57.7228 17.5092 57.3837 17.2339C57.048 16.9552 56.8062 16.5826 56.6585 16.1159H56.6283V19.6311H56.3966ZM58.5723 17.4152C58.9684 17.4152 59.3109 17.2977 59.5996 17.0627C59.8884 16.8243 60.1116 16.502 60.2694 16.0957C60.4272 15.6895 60.5061 15.2329 60.5061 14.7259C60.5061 14.2189 60.4272 13.764 60.2694 13.3611C60.1116 12.9548 59.8884 12.6342 59.5996 12.3992C59.3109 12.1642 58.9684 12.0467 58.5723 12.0467C58.1761 12.0467 57.8319 12.1642 57.5398 12.3992C57.2511 12.6342 57.0262 12.9548 56.865 13.3611C56.7072 13.764 56.6283 14.2189 56.6283 14.7259C56.6283 15.2329 56.7072 15.6895 56.865 16.0957C57.0228 16.502 57.2461 16.8243 57.5348 17.0627C57.8269 17.2977 58.1727 17.4152 58.5723 17.4152ZM64.384 17.6469C63.9408 17.6469 63.5429 17.5193 63.1904 17.2641C62.8379 17.0056 62.5592 16.6564 62.3544 16.2166C62.1496 15.7768 62.0472 15.2799 62.0472 14.7259C62.0472 14.1719 62.1496 13.6767 62.3544 13.2402C62.5592 12.8004 62.8379 12.4529 63.1904 12.1977C63.5429 11.9426 63.9408 11.815 64.384 11.815C64.8238 11.815 65.2183 11.9426 65.5675 12.1977C65.92 12.4529 66.1987 12.8004 66.4035 13.2402C66.6083 13.6801 66.7107 14.1753 66.7107 14.7259C66.7107 15.2799 66.6083 15.7768 66.4035 16.2166C66.202 16.6564 65.925 17.0056 65.5725 17.2641C65.2233 17.5193 64.8272 17.6469 64.384 17.6469ZM64.384 17.4152C64.7835 17.4152 65.1411 17.2977 65.4567 17.0627C65.7723 16.8277 66.0207 16.507 66.202 16.1008C66.3867 15.6945 66.479 15.2362 66.479 14.7259C66.479 14.2189 66.3867 13.764 66.202 13.3611C66.0174 12.9548 65.7672 12.6342 65.4516 12.3992C65.136 12.1642 64.7802 12.0467 64.384 12.0467C63.9878 12.0467 63.6302 12.1659 63.3113 12.4042C62.9957 12.6392 62.7439 12.9582 62.5559 13.3611C62.3712 13.764 62.2789 14.2189 62.2789 14.7259C62.2789 15.2362 62.3712 15.6945 62.5559 16.1008C62.7405 16.507 62.9906 16.8277 63.3062 17.0627C63.6252 17.2977 63.9844 17.4152 64.384 17.4152ZM69.9036 17.6469C69.4034 17.6469 68.9937 17.5243 68.6748 17.2792C68.3558 17.0308 68.1477 16.6833 68.0503 16.2367L68.282 16.1813C68.4532 17.0039 68.9937 17.4152 69.9036 17.4152C70.3904 17.4152 70.7849 17.2943 71.0871 17.0526C71.3926 16.8109 71.5454 16.4953 71.5454 16.1058C71.5454 15.5082 71.1828 15.1187 70.4576 14.9374L69.5813 14.7158C69.1482 14.6084 68.8192 14.4321 68.5942 14.187C68.3726 13.9419 68.2618 13.6448 68.2618 13.2956C68.2618 12.8524 68.423 12.4949 68.7453 12.2229C69.071 11.951 69.4906 11.815 70.0043 11.815C70.8806 11.815 71.4547 12.238 71.7267 13.0841L71.495 13.1445C71.2667 12.4126 70.7698 12.0467 70.0043 12.0467C69.5544 12.0467 69.1902 12.1608 68.9115 12.3891C68.6328 12.6174 68.4935 12.9196 68.4935 13.2956C68.4935 13.5877 68.5858 13.8362 68.7705 14.041C68.9585 14.2424 69.2422 14.3918 69.6216 14.4892L70.5079 14.7108C70.9176 14.8149 71.2315 14.9861 71.4497 15.2245C71.6679 15.4629 71.7771 15.7566 71.7771 16.1058C71.7771 16.4113 71.6965 16.6799 71.5353 16.9116C71.3775 17.1433 71.1576 17.3246 70.8756 17.4555C70.5936 17.5831 70.2696 17.6469 69.9036 17.6469ZM74.7282 17.6469C74.4194 17.6469 74.134 17.5831 73.8721 17.4555C73.6102 17.3279 73.4004 17.1416 73.2426 16.8965C73.0848 16.6514 73.0059 16.3543 73.0059 16.0051C73.0059 15.7499 73.063 15.5166 73.1771 15.3051C73.2913 15.0935 73.5011 14.9122 73.8066 14.7612C74.1155 14.6101 74.557 14.5009 75.1311 14.4338C75.393 14.4036 75.6381 14.37 75.8664 14.3331C76.0981 14.2928 76.2844 14.234 76.4254 14.1568C76.5698 14.0762 76.642 13.9638 76.642 13.8194V13.487C76.642 13.0505 76.4959 12.7014 76.2038 12.4395C75.9151 12.1776 75.5307 12.0467 75.0506 12.0467C74.6544 12.0467 74.3069 12.134 74.0081 12.3085C73.7126 12.4831 73.5061 12.7282 73.3886 13.0438L73.167 12.9532C73.3013 12.604 73.538 12.327 73.8771 12.1222C74.2196 11.9174 74.6107 11.815 75.0506 11.815C75.6213 11.815 76.0679 11.9745 76.3902 12.2934C76.7125 12.609 76.8737 13.0069 76.8737 13.487V17.526H76.642V16.3878H76.6118C76.4372 16.7639 76.1854 17.0677 75.8563 17.2994C75.5273 17.531 75.1513 17.6469 74.7282 17.6469ZM74.7282 17.4152C75.0841 17.4152 75.4064 17.3195 75.6952 17.1281C75.9839 16.9334 76.2139 16.6631 76.3851 16.3173C76.5564 15.9715 76.642 15.572 76.642 15.1187V14.2726C76.5043 14.3767 76.313 14.4573 76.0679 14.5144C75.8261 14.5715 75.5441 14.6185 75.2218 14.6554C74.7182 14.7125 74.322 14.8014 74.0333 14.9223C73.7445 15.0432 73.5397 15.1943 73.4188 15.3756C73.298 15.5535 73.2375 15.7633 73.2375 16.0051C73.2375 16.4281 73.3802 16.7689 73.6656 17.0274C73.9544 17.2859 74.3086 17.4152 74.7282 17.4152ZM81.0436 17.6469C80.5903 17.6469 80.1942 17.5092 79.8551 17.2339C79.5193 16.9552 79.2776 16.5826 79.1299 16.1159H79.0996V17.526H78.868V10.0221H79.0996V13.3359H79.1299C79.2742 12.8659 79.5176 12.4949 79.8601 12.2229C80.2026 11.951 80.5971 11.815 81.0436 11.815C81.4834 11.815 81.8645 11.9426 82.1868 12.1977C82.5125 12.4529 82.7643 12.8004 82.9422 13.2402C83.1202 13.6801 83.2091 14.1753 83.2091 14.7259C83.2091 15.2799 83.1202 15.7785 82.9422 16.2216C82.7676 16.6615 82.5175 17.009 82.1918 17.2641C81.8695 17.5193 81.4868 17.6469 81.0436 17.6469ZM81.0436 17.4152C81.4398 17.4152 81.7822 17.2977 82.071 17.0627C82.3597 16.8243 82.583 16.502 82.7408 16.0957C82.8986 15.6895 82.9775 15.2329 82.9775 14.7259C82.9775 14.2189 82.8986 13.764 82.7408 13.3611C82.583 12.9548 82.3597 12.6342 82.071 12.3992C81.7822 12.1642 81.4398 12.0467 81.0436 12.0467C80.6474 12.0467 80.3033 12.1642 80.0112 12.3992C79.7224 12.6342 79.4975 12.9548 79.3363 13.3611C79.1785 13.764 79.0996 14.2189 79.0996 14.7259C79.0996 15.2329 79.1785 15.6895 79.3363 16.0957C79.4941 16.502 79.7174 16.8243 80.0061 17.0627C80.2982 17.2977 80.6441 17.4152 81.0436 17.4152ZM85.0927 10.0221V17.526H84.861V10.0221H85.0927ZM89.1921 17.6469C88.7019 17.6469 88.2722 17.5193 87.9028 17.2641C87.5369 17.0056 87.2515 16.6564 87.0467 16.2166C86.8452 15.7734 86.7445 15.2765 86.7445 14.7259C86.7445 14.1753 86.8469 13.6801 87.0517 13.2402C87.2565 12.8004 87.5352 12.4529 87.8877 12.1977C88.2403 11.9426 88.6381 11.815 89.0813 11.815C89.5211 11.815 89.9139 11.9359 90.2598 12.1776C90.6056 12.4193 90.8775 12.75 91.0756 13.1697C91.2771 13.586 91.3778 14.0578 91.3778 14.5849V14.7158H86.9762C86.9795 15.206 87.0668 15.6559 87.2381 16.0655C87.4127 16.4751 87.6645 16.8025 87.9935 17.0476C88.3225 17.2927 88.7221 17.4152 89.1921 17.4152C89.5413 17.4152 89.8334 17.3548 90.0684 17.2339C90.3034 17.1097 90.4931 16.967 90.6375 16.8058C90.7818 16.6447 90.8876 16.5087 90.9547 16.3979L91.1461 16.5288C91.0622 16.6699 90.9363 16.8277 90.7684 17.0022C90.6039 17.1768 90.3907 17.3279 90.1288 17.4555C89.8703 17.5831 89.5581 17.6469 89.1921 17.6469ZM86.9812 14.4842H91.1512C91.1377 14.0309 91.0387 13.6196 90.854 13.2503C90.6727 12.881 90.4293 12.5889 90.1238 12.374C89.8183 12.1558 89.4708 12.0467 89.0813 12.0467C88.712 12.0467 88.3729 12.1524 88.064 12.3639C87.7551 12.5755 87.5033 12.8659 87.3086 13.2352C87.1138 13.6012 87.0047 14.0175 86.9812 14.4842Z" fill="#1D1B20"/>
<path d="M34.0311 28.474V20.9701H38.3974V21.6097H34.7462V24.4602H38.0499V25.0998H34.7462V28.474H34.0311ZM39.6212 28.474V22.8436H40.286V23.7199H40.3363C40.4471 23.4311 40.6419 23.2011 40.9205 23.0299C41.2026 22.8553 41.5182 22.768 41.8673 22.768C41.921 22.768 41.9815 22.7697 42.0486 22.7731C42.1158 22.7731 42.1712 22.7747 42.2148 22.7781V23.463C42.1913 23.4597 42.141 23.453 42.0637 23.4429C41.9865 23.4328 41.9026 23.4278 41.8119 23.4278C41.3755 23.4278 41.0145 23.5637 40.7292 23.8357C40.4471 24.1043 40.3061 24.4468 40.3061 24.8631V28.474H39.6212ZM45.3523 28.5949C44.8622 28.5949 44.4307 28.4723 44.0581 28.2272C43.6854 27.9788 43.3933 27.6363 43.1818 27.1999C42.9702 26.7634 42.8645 26.2598 42.8645 25.689C42.8645 25.1115 42.9702 24.6046 43.1818 24.1681C43.3933 23.7283 43.6854 23.3858 44.0581 23.1407C44.4307 22.8923 44.8622 22.768 45.3523 22.768C45.8392 22.768 46.2689 22.8923 46.6416 23.1407C47.0176 23.3858 47.3114 23.7283 47.5229 24.1681C47.7344 24.6046 47.8402 25.1115 47.8402 25.689C47.8402 26.2598 47.7344 26.7634 47.5229 27.1999C47.3114 27.6363 47.0176 27.9788 46.6416 28.2272C46.2689 28.4723 45.8392 28.5949 45.3523 28.5949ZM45.3523 27.9754C45.7384 27.9754 46.0641 27.8713 46.3294 27.6632C46.598 27.455 46.8028 27.178 46.9438 26.8322C47.0848 26.4864 47.1553 26.1053 47.1553 25.689C47.1553 25.2693 47.0848 24.8866 46.9438 24.5408C46.8028 24.1916 46.598 23.9129 46.3294 23.7048C46.0608 23.4932 45.7351 23.3875 45.3523 23.3875C44.9696 23.3875 44.6439 23.4932 44.3753 23.7048C44.1101 23.9129 43.907 24.1916 43.766 24.5408C43.6249 24.8866 43.5544 25.2693 43.5544 25.689C43.5544 26.1053 43.6233 26.4864 43.7609 26.8322C43.9019 27.178 44.1067 27.455 44.3753 27.6632C44.6439 27.8713 44.9696 27.9754 45.3523 27.9754ZM49.9554 24.9638V28.474H49.2705V22.8436H49.9302L49.9352 23.881C50.1065 23.4916 50.3465 23.2095 50.6554 23.0349C50.9643 22.857 51.3101 22.768 51.6929 22.768C52.2636 22.768 52.727 22.946 53.0828 23.3019C53.4387 23.6544 53.6167 24.1647 53.6167 24.8329V28.474H52.9368V24.8832C52.9368 24.4233 52.8075 24.0606 52.549 23.7954C52.2905 23.5268 51.9447 23.3925 51.5116 23.3925C51.0684 23.3925 50.6974 23.5335 50.3986 23.8156C50.1031 24.0976 49.9554 24.4803 49.9554 24.9638ZM57.2477 22.8436V23.4378H56.0894V27.1445C56.0894 27.7085 56.3412 27.9653 56.8449 27.915C56.8919 27.915 56.9489 27.9099 57.0161 27.8999C57.0866 27.8864 57.1521 27.873 57.2125 27.8596L57.3535 28.4488C57.2091 28.4958 57.0379 28.5227 56.8398 28.5294C56.3933 28.5596 56.0424 28.4539 55.7873 28.2121C55.5321 27.967 55.4045 27.6262 55.4045 27.1898V23.4378H54.5685V22.8436H55.4045V21.504H56.0894V22.8436H57.2477ZM60.6169 28.5949C60.0898 28.5949 59.6332 28.4723 59.2471 28.2272C58.8644 27.9788 58.5672 27.6363 58.3557 27.1999C58.1475 26.7634 58.0435 26.2614 58.0435 25.694C58.0435 25.1266 58.1459 24.623 58.3507 24.1832C58.5588 23.7434 58.8476 23.3976 59.2169 23.1457C59.5896 22.8939 60.021 22.768 60.5112 22.768C60.9208 22.768 61.3086 22.8688 61.6745 23.0702C62.0405 23.2716 62.3376 23.5789 62.5659 23.9918C62.7942 24.4048 62.9084 24.9302 62.9084 25.5681V25.8653H58.7334C58.7468 26.5065 58.9231 27.0202 59.2622 27.4063C59.6013 27.7891 60.0546 27.9805 60.622 27.9805C61.0148 27.9805 61.3371 27.8898 61.5889 27.7085C61.8407 27.5272 62.0187 27.3123 62.1227 27.0639L62.7724 27.2704C62.6448 27.6229 62.3947 27.9318 62.022 28.197C61.6527 28.4622 61.1843 28.5949 60.6169 28.5949ZM58.7334 25.276H62.2184C62.1815 24.7288 62.0136 24.2772 61.7148 23.9213C61.416 23.5621 61.0148 23.3824 60.5112 23.3824C60.1721 23.3824 59.8733 23.4681 59.6147 23.6393C59.3562 23.8105 59.1497 24.0405 58.9953 24.3292C58.8409 24.6146 58.7536 24.9302 58.7334 25.276ZM65.0034 24.9638V28.474H64.3185V22.8436H64.9782L64.9833 23.881C65.1545 23.4916 65.3946 23.2095 65.7035 23.0349C66.0123 22.857 66.3582 22.768 66.7409 22.768C67.3117 22.768 67.775 22.946 68.1309 23.3019C68.4868 23.6544 68.6647 24.1647 68.6647 24.8329V28.474H67.9848V24.8832C67.9848 24.4233 67.8556 24.0606 67.597 23.7954C67.3385 23.5268 66.9927 23.3925 66.5596 23.3925C66.1164 23.3925 65.7454 23.5335 65.4466 23.8156C65.1512 24.0976 65.0034 24.4803 65.0034 24.9638ZM72.4066 28.5949C71.9466 28.5949 71.5437 28.474 71.1979 28.2323C70.8521 27.9872 70.5818 27.6464 70.3871 27.2099C70.1957 26.7701 70.1 26.2581 70.1 25.6739C70.1 25.0931 70.1974 24.5861 70.3921 24.153C70.5868 23.7165 70.8571 23.3774 71.2029 23.1357C71.5521 22.8906 71.955 22.768 72.4116 22.768C72.7541 22.768 73.0395 22.8301 73.2678 22.9544C73.4961 23.0752 73.679 23.2246 73.8167 23.4026C73.9577 23.5805 74.0652 23.7551 74.139 23.9263H74.1944V20.9701H74.8743V28.474H74.2146V27.4214H74.139C74.0652 27.596 73.9577 27.774 73.8167 27.9553C73.6757 28.1366 73.4894 28.2893 73.2577 28.4136C73.0294 28.5344 72.7457 28.5949 72.4066 28.5949ZM72.4972 27.9754C72.8598 27.9754 73.167 27.8764 73.4188 27.6783C73.674 27.4802 73.8671 27.2082 73.998 26.8624C74.1323 26.5133 74.1995 26.1154 74.1995 25.6689C74.1995 25.2223 74.1323 24.8278 73.998 24.4854C73.8671 24.1429 73.674 23.8743 73.4188 23.6796C73.167 23.4848 72.8598 23.3875 72.4972 23.3875C72.1279 23.3875 71.8157 23.4882 71.5605 23.6896C71.3087 23.8911 71.1173 24.1647 70.9864 24.5105C70.8554 24.853 70.79 25.2391 70.79 25.6689C70.79 26.102 70.8554 26.4931 70.9864 26.8423C71.1207 27.1881 71.3137 27.4634 71.5655 27.6682C71.8207 27.873 72.1313 27.9754 72.4972 27.9754ZM78.3996 28.5949C77.8456 28.5949 77.3873 28.4706 77.0247 28.2222C76.6655 27.9704 76.4355 27.6078 76.3348 27.1344L76.9895 26.9783C77.0701 27.3174 77.2295 27.5708 77.4679 27.7387C77.7097 27.9032 78.0169 27.9855 78.3895 27.9855C78.8159 27.9855 79.1567 27.8898 79.4119 27.6984C79.6704 27.5071 79.7997 27.2687 79.7997 26.9833C79.7997 26.5267 79.4941 26.2245 78.8831 26.0768L77.9665 25.8552C77.0029 25.6235 76.5211 25.125 76.5211 24.3595C76.5211 24.0439 76.6051 23.7669 76.7729 23.5285C76.9442 23.2901 77.1775 23.1038 77.473 22.9695C77.7718 22.8352 78.1109 22.768 78.4903 22.768C79.0207 22.768 79.4404 22.8889 79.7493 23.1306C80.0615 23.369 80.2831 23.6913 80.4141 24.0976L79.7896 24.2587C79.7023 24.0002 79.5562 23.787 79.3514 23.6191C79.15 23.4479 78.8646 23.3623 78.4953 23.3623C78.1226 23.3623 77.8154 23.453 77.5737 23.6343C77.3319 23.8122 77.2111 24.0405 77.2111 24.3192C77.2111 24.7825 77.5468 25.0947 78.2183 25.2559L79.0795 25.4624C80.0296 25.6907 80.5047 26.1842 80.5047 26.943C80.5047 27.2653 80.4157 27.5507 80.2378 27.7992C80.0599 28.0476 79.8114 28.2423 79.4925 28.3833C79.1769 28.5244 78.8126 28.5949 78.3996 28.5949Z" fill="#1D1B20"/>
</svg>
