<?xml version="1.0" encoding="utf-8"?>
<!-- Generator: Adobe Illustrator 26.5.0, SVG Export Plug-In . SVG Version: 6.00 Build 0)  -->
<svg version="1.1" id="Layer_1" xmlns="http://www.w3.org/2000/svg" xmlns:xlink="http://www.w3.org/1999/xlink" x="0px" y="0px"
	 viewBox="0 0 512 512" style="enable-background:new 0 0 512 512;" xml:space="preserve">
<style type="text/css">
	.st0{fill:#008BDF;}
	.st1{fill:#189EFF;}
	.st2{fill:#7FCAFF;}
</style>
<g>
	<g>
		<path class="st0" d="M28.9,177.7c0,18.5,15,33.4,33.4,33.4h387.4c18.5,0,33.4-15,33.4-33.4s-15-33.4-33.4-33.4H62.3
			C43.9,144.3,28.9,159.3,28.9,177.7C28.9,177.7,28.9,159.3,28.9,177.7z"/>
	</g>
	<g>
		<path class="st1" d="M28.9,256c0,18.5,15,33.4,33.4,33.4h387.4c18.5,0,33.4-15,33.4-33.4s-15-33.4-33.4-33.4H62.3
			C43.9,222.6,28.9,237.5,28.9,256C28.9,256,28.9,237.5,28.9,256z"/>
	</g>
	<g>
		<path class="st2" d="M28.9,334.3c0,18.5,15,33.4,33.4,33.4h387.4c18.5,0,33.4-15,33.4-33.4c0-18.5-15-33.4-33.4-33.4H62.3
			C43.9,300.9,28.9,315.8,28.9,334.3C28.9,334.3,28.9,315.8,28.9,334.3z"/>
	</g>
</g>
</svg>
