<svg id="meteor-icon-kit__regular-envelope" viewBox="0 0 24 18" fill="currentColor" xmlns="http://www.w3.org/2000/svg"><path fill-rule="evenodd" clip-rule="evenodd" d="M3.74379 2L10.8531 6.9765C11.5417 7.4585 12.4583 7.4585 13.1469 6.9765L20.2562 2H3.74379zM22 3.22066L14.2938 8.615C12.9166 9.5791 11.0834 9.5791 9.70615 8.615L2 3.22066V15C2 15.5523 2.44772 16 3 16H21C21.5523 16 22 15.5523 22 15V3.22066zM3 0H21C22.6569 0 24 1.34315 24 3V15C24 16.6569 22.6569 18 21 18H3C1.34315 18 0 16.6569 0 15V3C0 1.34315 1.34315 0 3 0z" fill="currentColor"/></svg>