<svg id="meteor-icon-kit__regular-heart" viewBox="0 0 24 20" fill="none" xmlns="http://www.w3.org/2000/svg"><path fill-rule="evenodd" clip-rule="evenodd" d="M20.0139 10.2998C21.8363 8.4773 21.8363 5.52253 20.0139 3.70009C18.1914 1.87764 15.2367 1.87764 13.4142 3.70009L12 5.1143L10.5858 3.70009C8.76334 1.87764 5.80857 1.87764 3.98613 3.70009C2.16368 5.52253 2.16368 8.4773 3.98613 10.2998L11.505 17.8187C11.7784 18.092 12.2216 18.092 12.495 17.8187L20.0139 10.2998zM21.4281 11.714L13.9092 19.2329C12.8548 20.2873 11.1452 20.2873 10.0908 19.2329L2.57191 11.714C-0.0315807 9.1105 -0.0315807 4.88937 2.57191 2.28587C5.17541 -0.31762 9.39651 -0.31762 12 2.28587C14.6035 -0.31762 18.8246 -0.31762 21.4281 2.28587C24.0316 4.88937 24.0316 9.1105 21.4281 11.714z" fill="currentColor"/></svg>