<svg id="meteor-icon-kit__regular-bars" viewBox="0 0 20 16" fill="none" xmlns="http://www.w3.org/2000/svg"><path fill-rule="evenodd" clip-rule="evenodd" d="M1 9C0.44772 9 0 8.5523 0 8C0 7.4477 0.44772 7 1 7H19C19.5523 7 20 7.4477 20 8C20 8.5523 19.5523 9 19 9H1zM1 2C0.44772 2 0 1.55228 0 1C0 0.44772 0.44772 0 1 0H19C19.5523 0 20 0.44772 20 1C20 1.55228 19.5523 2 19 2H1zM1 16C0.44772 16 0 15.5523 0 15C0 14.4477 0.44772 14 1 14H19C19.5523 14 20 14.4477 20 15C20 15.5523 19.5523 16 19 16H1z" fill="currentColor"/></svg>