<svg width="108" height="20" viewBox="0 0 108 20" fill="none" xmlns="http://www.w3.org/2000/svg">
<path d="M0.0298386 0H3.44981V16.58H13.3814V19.5349H0.0298386V0Z" fill="black"/>
<path d="M19.899 0H23.319V11.3817C23.319 12.0383 23.3464 12.7041 23.4011 13.3789C23.474 14.0538 23.6564 14.6648 23.9483 15.212C24.2584 15.741 24.7143 16.1788 25.3163 16.5253C25.9364 16.8719 26.8028 17.0451 27.9154 17.0451C29.0281 17.0451 29.8853 16.8719 30.4873 16.5253C31.1074 16.1788 31.5634 15.741 31.8552 15.212C32.1653 14.6648 32.3477 14.0538 32.4024 13.3789C32.4754 12.7041 32.5119 12.0383 32.5119 11.3817V0H35.9319V12.5034C35.9319 13.762 35.7403 14.8564 35.3573 15.7866C34.9743 16.7168 34.4271 17.5011 33.7157 18.1395C33.0226 18.7597 32.1836 19.2248 31.1986 19.5349C30.2137 19.845 29.1193 20 27.9154 20C26.7116 20 25.6172 19.845 24.6323 19.5349C23.6473 19.2248 22.7992 18.7597 22.0878 18.1395C21.3947 17.5011 20.8566 16.7168 20.4736 15.7866C20.0905 14.8564 19.899 13.762 19.899 12.5034V0Z" fill="black"/>
<path d="M43.6386 0H47.7152L52.1474 6.89467L56.7712 0H60.6016L54.1447 9.41177L61.0667 19.5349H56.9081L52.038 12.0657L47.0859 19.5349H43.1734L50.0955 9.41177L43.6386 0Z" fill="black"/>
<path d="M68.5479 0H82.6108V2.95486H71.9679V8.07114H81.8174V10.8618H71.9679V16.58H82.8024V19.5349H68.5479V0Z" fill="black"/>
<path d="M91.2533 0H99.3518C100.848 0 102.143 0.255358 103.237 0.766074C104.331 1.27679 105.225 1.97902 105.918 2.87278C106.611 3.74829 107.122 4.77884 107.45 5.96443C107.797 7.15002 107.97 8.41769 107.97 9.76744C107.97 11.1172 107.797 12.3849 107.45 13.5705C107.122 14.756 106.611 15.7957 105.918 16.6895C105.225 17.565 104.331 18.2581 103.237 18.7688C102.143 19.2795 100.848 19.5349 99.3518 19.5349H91.2533V0ZM94.6733 16.7442H98.0386C99.3701 16.7442 100.455 16.5709 101.294 16.2244C102.152 15.8596 102.817 15.3671 103.292 14.7469C103.784 14.1085 104.112 13.3698 104.277 12.5308C104.459 11.6735 104.55 10.7524 104.55 9.76744C104.55 8.78249 104.459 7.8705 104.277 7.03146C104.112 6.17419 103.784 5.43548 103.292 4.81532C102.817 4.17693 102.152 3.68445 101.294 3.33789C100.455 2.9731 99.3701 2.7907 98.0386 2.7907H94.6733V16.7442Z" fill="black"/>
</svg>
