<svg width="24" height="24" viewBox="0 0 24 24" fill="none" xmlns="http://www.w3.org/2000/svg">
<path fill-rule="evenodd" clip-rule="evenodd" d="M12 24C18.6274 24 24 18.6274 24 12C24 5.37258 18.6274 0 12 0C5.37258 0 0 5.37258 0 12C0 18.6274 5.37258 24 12 24ZM7.56066 10.9393L10.5 13.8787L16.4393 7.93934C17.0251 7.35355 17.9749 7.35355 18.5607 7.93934C19.1464 8.52513 19.1464 9.47487 18.5607 10.0607L11.5607 17.0607C10.9749 17.6464 10.0251 17.6464 9.43934 17.0607L5.43934 13.0607C4.85355 12.4749 4.85355 11.5251 5.43934 10.9393C6.02513 10.3536 6.97487 10.3536 7.56066 10.9393Z" fill="#1E1E24"/>
</svg>
